<svg width="1823" height="2500" viewBox="0 0 256 351" xmlns="http://www.w3.org/2000/svg" xmlns:xlink="http://www.w3.org/1999/xlink" preserveAspectRatio="xMidYMid">
  <defs>
    <path d="M1 281l2-3 99-189L58 6c-4-7-13-6-14 2L1 281z" id="a"/>
    <filter x="-50%" y="-50%" width="200%" height="200%" filterUnits="objectBoundingBox" id="b">
      <feGaussianBlur stdDeviation="18" in="SourceAlpha" result="shadowBlurInner1"/>
      <feOffset in="shadowBlurInner1" result="shadowOffsetInner1"/>
      <feComposite in="shadowOffsetInner1" in2="SourceAlpha" operator="arithmetic" k2="-1" k3="1" result="shadowInnerInner1"/>
      <feColorMatrix values="0 0 0 0 0 0 0 0 0 0 0 0 0 0 0 0 0 0 0.06 0" in="shadowInnerInner1"/>
    </filter>
    <path d="M134 149l32-33-32-61c-3-6-10-6-13 0l-18 34v1l31 59z" id="c"/>
    <filter x="-50%" y="-50%" width="200%" height="200%" filterUnits="objectBoundingBox" id="d">
      <feGaussianBlur stdDeviation="4" in="SourceAlpha" result="shadowBlurInner1"/>
      <feOffset dx="1" dy="-9" in="shadowBlurInner1" result="shadowOffsetInner1"/>
      <feComposite in="shadowOffsetInner1" in2="SourceAlpha" operator="arithmetic" k2="-1" k3="1" result="shadowInnerInner1"/>
      <feColorMatrix values="0 0 0 0 0 0 0 0 0 0 0 0 0 0 0 0 0 0 0.09 0" in="shadowInnerInner1"/>
    </filter>
  </defs>
  <path d="M0 283l2-3L103 90v-3L58 4c-3-7-14-5-15 3L0 283z" fill="#FFC24A"/>
  <use fill="#FFA712" fill-rule="evenodd" xlink:href="#a"/>
  <use filter="url(#b)" xlink:href="#a"/>
  <path d="M135 150l33-33-33-63c-3-6-12-6-15 0l-18 33v3l33 60z" fill="#F4BD62"/>
  <use fill="#FFA50E" fill-rule="evenodd" xlink:href="#c"/>
  <use filter="url(#d)" xlink:href="#c"/>
  <path fill="#F6820C" d="M0 283l1-1 3-1 129-128 2-5-32-61z"/>
  <path d="M139 348l116-65-33-205c-1-6-9-9-13-4L0 283l116 65a24 24 0 0 0 23 0" fill="#FDE068"/>
  <path d="M254 282L221 79c-1-6-7-9-12-4L1 283l115 64a24 24 0 0 0 23 0l115-65z" fill="#FCCA3F"/>
  <path d="M139 346a24 24 0 0 1-23 0L1 282l-1 1 116 65a24 24 0 0 0 23 0l116-65v-2l-116 65z" fill="#EEAB37"/>
</svg>
