<svg xmlns="http://www.w3.org/2000/svg" width="260.09" height="260.09"><path d="M0 195.06a65.02 65.02 0 0 0 65.02 65.03h130.04a65.02 65.02 0 0 0 65.03-65.03V65.02A65.02 65.02 0 0 0 195.06 0H65.02A65.02 65.02 0 0 0 0 65.02v130.04z" fill="#3d5afe"/><path d="M238.41 130.04a21.67 21.67 0 0 1-21.67-21.67V65.02c0-11.97-9.7-21.67-21.68-21.67H173.4V151.7L86.69 43.37v-.02H65.03a21.67 21.67 0 0 0-21.67 21.67v43.36c0 11.96-9.7 21.66-21.68 21.66 11.97 0 21.67 9.7 21.68 21.66v43.37c0 11.97 9.7 21.67 21.67 21.67H86.7V108.4l86.69 108.34h21.67c11.97 0 21.68-9.7 21.68-21.68v-43.35c0-11.97 9.7-21.67 21.67-21.67z" fill="#fff"/></svg>