<svg xmlns="http://www.w3.org/2000/svg" viewBox="0 0 264.58 255.59" height="966" width="1000"><path d="M153.34 4.24c-1.81 0-3.5.39-5.04.9 3.3 2.2 5.1 5.11 6 8.4.07.46.2.78.27 1.23.06.4.13.78.13 1.17.25 5.68-1.5 6.4-2.72 9.75a13.8 13.8 0 0 0 .9 12.73c.2.46.46.97.78 1.43-2.45-16.35 11.18-18.8 13.7-23.91.2-4.46-3.49-7.44-6.4-9.5a14.28 14.28 0 0 0-7.62-2.2zm20.55 3.68c-.26 1.49-.07 1.1-.13 1.88-.07.51-.07 1.16-.13 1.68-.13.51-.26 1.03-.45 1.55-.13.52-.33 1.03-.52 1.55-.26.52-.45.97-.71 1.49-.2.25-.32.51-.52.77l-.39.58c-.32.45-.64.9-.96 1.3-.4.38-.72.83-1.17 1.16v.06c-.39.33-.77.71-1.23 1.04-1.35 1.03-2.9 1.8-4.33 2.78-.45.32-.9.58-1.29.96-.45.33-.84.65-1.23 1.04-.45.39-.77.77-1.16 1.23-.32.38-.7.84-.97 1.29-.32.45-.64.9-.9 1.36-.26.51-.45.96-.71 1.48-.2.52-.4.97-.52 1.49-.2.58-.32 1.1-.45 1.61-.07.26-.07.59-.13.84-.07.26-.07.52-.13.78 0 .52-.07 1.1-.07 1.61 0 .4 0 .78.07 1.17 0 .51.06 1.03.2 1.61.06.52.19 1.04.32 1.55.19.52.32 1.04.51 1.55.13.33.33.65.46.91l-14.87-5.75c-2.52-.71-4.97-1.36-7.5-1.94l-4.06-.97c-3.88-.77-7.82-1.36-11.76-1.74-.13 0-.2-.07-.33-.07a115.54 115.54 0 0 0-20.03-.26c-3.94.26-7.88.78-11.83 1.42-.96.13-1.93.33-2.9.52-2 .39-3.95.84-5.82 1.3l-2.9.77c-.98.39-1.88.84-2.79 1.23l-2.13.97c-.13.06-.26.06-.32.13-.65.32-1.23.58-1.81.9-.2.06-.32.13-.45.2-.71.32-1.42.7-2 1.03-.46.2-.91.45-1.3.64-.2.13-.45.26-.58.33-.58.32-1.16.64-1.68.97-.58.32-1.1.64-1.55.97-.45.32-.9.58-1.3.9-.06.06-.12.06-.19.13-.38.26-.84.58-1.23.9l-.12.13-.97.78c-.13.06-.26.2-.4.26-.31.26-.64.58-.96.84-.07.13-.2.2-.26.26-.39.38-.77.7-1.16 1.1-.07 0-.07.06-.13.12-.39.33-.78.71-1.16 1.1-.07.07-.07.13-.13.13-.33.32-.65.65-.97 1.04-.13.12-.33.25-.46.38-.32.4-.7.78-1.1 1.17-.06.13-.19.19-.25.32-.52.52-.97 1.03-1.49 1.55l-.2.2a38.14 38.14 0 0 1-3.29 3.16c-1.16 1.03-2.39 2-3.62 2.84-1.29.9-2.52 1.68-3.87 2.46a46.55 46.55 0 0 1-8.27 3.49c-2.72.58-5.5 1.68-7.89 1.87-.52 0-1.1.13-1.61.2l-1.62.38-1.55.59c-.52.19-1.03.45-1.55.7-.45.33-.97.59-1.42.91-.46.32-.9.71-1.3 1.1-.45.32-.9.78-1.29 1.16-.39.46-.77.84-1.1 1.3-.32.51-.7.96-.97 1.48-.32.45-.64.97-.9 1.49-.26.58-.52 1.1-.71 1.68-.2.51-.39 1.1-.58 1.68-.13.51-.26 1.03-.33 1.55 0 .06-.06.13-.06.2-.13.57-.13 1.35-.2 1.74-.06.45-.12.84-.12 1.29a6.85 6.85 0 0 0 .78 3.23v.07c.19.38.44.77.7 1.16.26.39.52.77.84 1.16.33.32.71.71 1.1 1.04.39.38.78.7 1.23 1.03 1.55 1.36 1.94 1.8 3.94 2.84.32.2.65.33 1.03.52.07 0 .13.06.2.06 0 .13 0 .2.06.33a13.26 13.26 0 0 0 .84 3.1c.2.39.33.77.52 1.16.07.13.13.26.2.33.25.51.51.96.77 1.42l.97 1.35c.32.4.71.84 1.1 1.23.39.39.77.71 1.23 1.1 0 0 .06.07.12.07.4.32.78.64 1.17.9.45.32.9.58 1.42.84.45.26.97.52 1.49.71.38.2.84.32 1.29.45.06.07.13.07.26.13l.84.2c-.2 3.49-.26 6.78.26 7.94.58 1.3 3.42-2.64 6.26-7.17-.38 4.46-.64 9.7 0 11.25.71 1.61 4.6-3.43 7.95-8.99 45.82-10.6 87.63 21.07 92.02 65.79-.84-6.98-9.43-10.86-13.38-9.9-1.94 4.8-5.23 10.93-10.53 14.74.45-4.26.26-8.66-.65-12.92a41.8 41.8 0 0 1-8 16.28c-6.15.46-12.29-2.52-15.52-6.98-.26-.19-.32-.58-.51-.84-.2-.45-.4-.9-.52-1.35-.2-.46-.32-.9-.39-1.36-.06-.45-.06-.9-.06-1.42V176c.06-.45.19-.9.32-1.36.13-.45.26-.9.45-1.36.26-.45.45-.9.78-1.35 1.1-3.1 1.1-5.62-.9-7.11a7.36 7.36 0 0 0-1.24-.65c-.25-.06-.58-.19-.84-.26-.19-.06-.32-.12-.51-.19-.45-.13-.9-.26-1.36-.32-.45-.13-.9-.2-1.36-.2-.45-.06-.97-.13-1.42-.13-.32 0-.64.07-.97.07-.51 0-.97.06-1.42.2-.45.06-.9.12-1.36.25-.45.13-.9.26-1.35.45-.46.2-.84.4-1.3.59-.38.19-.77.45-1.22.64-15.06 9.82-6.08 32.83 4.2 39.48-3.88.72-7.82 1.56-8.92 2.4l-.13.12a60.89 60.89 0 0 0 8.72 4.33c4.14 1.36 8.53 2.59 10.47 3.1v.07a62.52 62.52 0 0 0 16.29 1.16c28.62-2 52.08-23.78 56.35-52.47.12.58.25 1.1.38 1.68.2 1.17.46 2.4.58 3.62v.07c.13.58.2 1.16.26 1.68v.26c.07.58.13 1.16.13 1.68.07.7.13 1.42.13 2.13v1.03c0 .32.07.71.07 1.04 0 .38-.07.77-.07 1.16v.9c0 .46-.06.84-.06 1.3 0 .25 0 .51-.07.84 0 .45-.06.9-.06 1.42-.07.2-.07.39-.07.58l-.2 1.49c0 .19 0 .38-.06.58-.06.64-.19 1.22-.25 1.87v.13c-.13.58-.26 1.23-.4 1.81v.2l-.38 1.74c0 .06-.07.2-.07.26-.12.58-.25 1.16-.45 1.74v.2c-.2.64-.39 1.22-.51 1.8-.07.07-.07.13-.07.13l-.58 1.94c-.26.65-.45 1.23-.71 1.88-.26.64-.45 1.29-.71 1.87-.26.65-.52 1.23-.78 1.87h-.06c-.26.59-.52 1.23-.84 1.81-.07.2-.13.33-.2.46-.06.06-.06.13-.13.19A61.16 61.16 0 0 1 135 226.53c-.52.33-1.04.71-1.55 1.1-.13.13-.33.2-.46.32-.45.33-.9.65-1.42.97l.2.4h.06l2.71-.4h.07c1.68-.26 3.36-.58 5.04-.9.45-.07.97-.2 1.42-.32l.9-.2c.46-.06.91-.2 1.36-.26.39-.13.78-.2 1.17-.32a122.46 122.46 0 0 0 18.74-6.2 103.49 103.49 0 0 1-40.13 32.76c7.43-.52 14.86-1.75 22.03-3.81a103.24 103.24 0 0 0 61.07-48.8 103.14 103.14 0 0 1-17.39 41.56 101.73 101.73 0 0 0 17.26-14.35 102.43 102.43 0 0 0 27.2-54.92 102.9 102.9 0 0 1 1.88 31.14c46.65-65.07 3.87-132.53-14.03-150.3-.06-.13-.12-.2-.12-.33-.07.07-.07.07-.07.13 0-.06 0-.06-.06-.13 0 .78-.07 1.56-.13 2.33-.2 1.49-.4 2.9-.65 4.33-.32 1.42-.71 2.84-1.1 4.27a53.75 53.75 0 0 1-1.55 4.13 55.49 55.49 0 0 1-1.94 3.94 49.37 49.37 0 0 1-4.98 7.17c-.96 1.17-2 2.2-3.03 3.24-.65.58-1.23 1.1-1.87 1.61l-1.5 1.3c-1.15.9-2.32 1.74-3.6 2.51a44.78 44.78 0 0 1-3.82 2.2c-1.36.65-2.72 1.23-4.07 1.81a45.5 45.5 0 0 1-8.53 2.33c-1.49.26-2.98.38-4.4.51a49.7 49.7 0 0 1-3.1.13c-1.48 0-2.97-.13-4.4-.26a32.7 32.7 0 0 1-4.39-.64 32.7 32.7 0 0 1-4.33-1.1h-.06c1.42-.13 2.84-.26 4.26-.52a46.84 46.84 0 0 0 8.53-2.32 38.8 38.8 0 0 0 4.07-1.81 45.23 45.23 0 0 0 3.88-2.14c1.23-.84 2.46-1.68 3.62-2.58 1.16-.9 2.26-1.87 3.3-2.9 1.1-.98 2.06-2.08 3.03-3.17a63.86 63.86 0 0 0 2.72-3.5c.13-.19.26-.45.39-.64.64-1.03 1.29-2.07 1.87-3.1a44.54 44.54 0 0 0 3.49-8.08c.45-1.36.77-2.78 1.1-4.2.26-1.49.51-2.9.64-4.33.13-1.48.26-2.97.26-4.4 0-1.03-.06-2.06-.13-3.1-.13-1.48-.32-2.9-.51-4.32-.26-1.49-.59-2.91-.97-4.33-.46-1.36-.9-2.78-1.43-4.14a44.64 44.64 0 0 0-1.8-4c-.72-1.3-1.43-2.59-2.2-3.82a71.35 71.35 0 0 0-2.59-3.55c-.97-1.1-1.94-2.2-2.97-3.3-.52-.51-1.1-1.1-1.68-1.61-2.9-2.27-5.94-4.4-8.98-6.34-.45-.25-.84-.45-1.3-.64a25.18 25.18 0 0 0-6.13-2.72z" fill="#e0234e" fill-rule="evenodd" stroke-width=".81"/></svg>