<svg width="373" height="400" xmlns="http://www.w3.org/2000/svg"><g fill="none" fill-rule="evenodd"><path fill="#4A4A4A" fill-rule="nonzero" d="M186.2 0L0 66.4l28.4 246.2L186.2 400 344 312.6l28.4-246.2"/><path fill="#545454" fill-rule="nonzero" d="M186 0v44.4-.2V400l157.8-87.4 28.4-246.2"/><path d="M149.11 84.12c-.44.07-1.11.28-1.5.46a7.6 7.6 0 0 1-1.6.46c-.5.09-1.11.32-1.37.53-.27.2-.73.37-1.03.37-.3 0-.77.22-1.06.48-.29.27-.71.55-.94.62-.22.07-.63.35-.9.62-.26.26-.57.48-.69.48-.11 0-.2.14-.2.3 0 .17-.22.4-.48.5-.26.09-.52.36-.58.59-.06.22-.25.41-.43.41-.17 0-.32.1-.32.2 0 .11-.27.49-.6.83-.33.35-.6.7-.6.79 0 .08-.18.21-.4.28-.22.07-.4.22-.4.33 0 .24-1.3 1.65-3.7 4-.99.96-2.03 1.98-2.3 2.26-.28.28-.58.51-.66.51-.08 0-.54.4-1.03.9s-.97.9-1.06.9c-.1 0-.34.17-.53.38-.2.21-.62.5-.96.64-.33.14-.82.44-1.07.67-.88.8-1.6 1.25-2.18 1.4-.32.07-.7.3-.85.5-.14.21-.55.44-.9.52-.36.08-.75.27-.87.44-.11.16-.64.37-1.16.47-.53.1-1.18.35-1.46.57-.27.21-.92.45-1.43.52-.52.08-1.09.27-1.27.43-.22.19-1.15.36-2.6.49-1.25.1-2.56.33-2.92.5-.36.16-1.74.38-3.08.5a10.3 10.3 0 0 0-2.88.5c-.24.15-1 .38-1.7.49-.84.13-1.35.33-1.53.58-.14.2-.52.43-.84.5-.32.07-.73.3-.93.51-.2.22-.47.4-.62.4-.3 0-2.67 2.29-2.67 2.58 0 .1-.17.36-.37.55-.2.2-.48.7-.62 1.1-.13.42-.36.83-.51.91-.17.1-.36.82-.49 1.87-.12.95-.34 2.16-.5 2.7-.21.76-.3 2.87-.34 9.28-.07 8.03-.08 8.32-.5 9.02-.22.4-.52 1.04-.66 1.45-.13.4-.32.73-.43.73-.1 0-.27.2-.36.45-.3.82-4.66 5.39-6.52 6.85-.41.33-1.04.84-1.38 1.14l-1.17 1c-.47.39-3.14 3.03-4.54 4.48-.22.23-.4.51-.4.62 0 .1-.28.5-.6.86-.34.37-.6.82-.6 1 0 .19-.18.5-.4.7-.21.19-.49.82-.6 1.4a3.16 3.16 0 0 1-.52 1.31c-.42.35-.4 4.27.02 5.28.17.4.4 1.79.52 3.06.12 1.33.34 2.52.5 2.76.16.24.37 1.17.47 2.06.13 1.15.3 1.75.57 2.05.22.23.46.74.53 1.15.07.4.3.91.5 1.13.2.22.42.7.5 1.05.07.36.3.74.51.85.22.12.42.51.49.95.06.41.26 1.2.45 1.75.47 1.41.47 6.3 0 7.3a6.99 6.99 0 0 0-.46 1.64 4.15 4.15 0 0 1-.6 1.59c-.27.36-.49.78-.49.94a6.8 6.8 0 0 1-1.7 2.5c-.16.07-.3.3-.3.52 0 .22-.18.5-.4.61-.22.12-.4.34-.4.5 0 .16-.25.58-.57.94a3.5 3.5 0 0 0-.7 1.4c-.08.4-.27.83-.43.96-.42.35-.4 3.2.01 4.02.17.33.39 1.28.48 2.1.12 1.05.3 1.65.57 1.95.21.23.45.68.52.99.07.3.31.73.53.95.21.21.4.55.4.75 0 .2.4.8.9 1.35.49.54 1.02 1.26 1.18 1.6.16.32.47.7.7.84.23.14.41.38.41.53 0 .15.14.33.3.4.17.06.4.34.54.61.12.28.35.51.5.51.15 0 .33.16.4.35.07.2.32.54.55.78.23.23.9.98 1.51 1.67.6.69 1.52 1.7 2.03 2.26.52.55.99 1.27 1.05 1.59.07.32.3.8.5 1.07.21.27.45.94.52 1.48.08.55.21 1 .3 1 .2 0 .54.93.67 1.85.06.42.29.98.5 1.26.22.28.46.86.53 1.3.08.43.2.8.3.8.2 0 .55.89.71 1.83.07.4.25.78.4.84.15.05.39.48.53.96.14.47.41 1.01.6 1.2.2.2.36.62.36.95 0 .32.22.83.48 1.15.26.3.54.79.62 1.06.09.28.33.72.53.98s.37.64.37.83c0 .2.22.62.49.94.27.32.55.81.62 1.1.07.29.25.57.4.63.15.05.38.49.52.96s.42.98.61 1.12c.2.15.36.4.36.55 0 .16.18.45.4.64.23.2.5.69.62 1.1.1.41.28.75.38.75.1 0 .55.56.99 1.25.43.69.93 1.43 1.1 1.65.71.92 1.32 1.83 1.52 2.29.11.26.4.68.65.92.24.24.6.65.8.91 1 1.36 1.76 2.32 2.13 2.7.23.23.41.52.41.65 0 .12.23.37.5.55.28.18.5.42.5.52 0 .11.25.44.55.73.3.3 1 1.06 1.55 1.7.55.65 1.47 1.68 2.05 2.3a5.42 5.42 0 0 1 1.05 1.38c0 .14.12.25.26.25.33 0 1.74 1.43 1.74 1.76 0 .13.12.24.25.25.32 0 1.45 1.03 1.74 1.57.13.23.33.42.45.42.2 0 .85.56 3.72 3.22.57.54 1.14.98 1.24.98.11 0 .31.18.45.4.14.22.36.4.5.4.13 0 .39.23.57.5.18.28.44.5.57.5.13 0 .55.27.93.6.37.34.97.86 1.33 1.16.36.3 1.07.92 1.58 1.4.5.46 1.13.96 1.37 1.1 1.04.57 2.1 1.36 2.1 1.55 0 .12.27.3.59.41.32.12.63.34.69.5.06.15.23.28.38.28s.57.27.94.6c.37.33.78.6.9.6.14 0 .4.18.6.4.2.22.47.4.6.4.12 0 .53.27.91.6.38.32.84.59 1.01.6.18 0 .48.18.68.4.2.22.49.4.64.4.16 0 .5.22.76.48.27.27.8.59 1.18.71.38.13.8.36.93.52.13.16.36.3.5.3s.53.22.86.5c.32.27.87.55 1.2.61.33.07.77.28.98.47.2.2.7.46 1.1.6.4.12.76.35.82.5.05.14.5.36 1 .48.5.13 1.03.36 1.2.52.15.16.54.35.86.43.31.07.75.3.97.5.22.2.8.44 1.27.55.47.1 1.01.33 1.2.5.18.16.67.36 1.09.44.41.07.86.3 1 .48.14.2.76.44 1.43.58.65.13 1.32.36 1.5.51.17.16.66.35 1.09.43.43.08.94.3 1.13.5.2.2.92.44 1.7.56.74.12 1.49.34 1.67.5.18.16.75.36 1.27.44a3.7 3.7 0 0 1 1.45.52c.32.25 1.01.45 1.97.55.82.1 1.75.31 2.06.49.31.17 1.19.4 1.95.51.75.11 1.52.34 1.7.5.23.21 1.06.38 2.46.5 1.17.1 2.42.32 2.79.49.37.16 1.68.4 2.92.51 1.3.12 2.52.35 2.89.54 1.59.82 24.66.81 26.3-.01.38-.2 1.64-.41 3.1-.54 1.35-.12 2.7-.34 3-.5.3-.14 1.6-.36 2.89-.47 1.6-.14 2.46-.3 2.7-.52.18-.17 1-.4 1.8-.5.81-.1 1.71-.32 2.01-.49.3-.16 1.28-.4 2.2-.5.9-.12 1.7-.28 1.76-.37.19-.29.9-.57 1.8-.72.49-.08 1.09-.28 1.32-.43.24-.15 1-.38 1.68-.5.69-.12 1.4-.38 1.6-.57.19-.18.74-.4 1.22-.48a2.95 2.95 0 0 0 1.2-.43c.17-.16.74-.37 1.25-.46.52-.1 1.11-.33 1.32-.51.2-.19.71-.43 1.14-.55a4.2 4.2 0 0 0 1.23-.58c.25-.2.82-.42 1.26-.5.45-.07.86-.25.92-.4.06-.16.48-.4.93-.53.46-.13.9-.35.99-.5.09-.13.54-.35 1-.47.46-.12.94-.34 1.05-.48.2-.26 1.09-.77 2.5-1.42a5.5 5.5 0 0 0 1.1-.69c.21-.2.6-.42.86-.5.26-.07.64-.3.85-.51.2-.21.6-.44.9-.51a3 3 0 0 0 1.05-.62l.84-.77c.17-.15.65-.42 1.05-.59.4-.17.74-.4.74-.5 0-.12.25-.32.54-.45.3-.14.75-.43 1-.65.98-.87 1.83-1.5 2.03-1.5.12 0 .3-.17.42-.38.11-.2.43-.43.7-.5.29-.07.51-.26.51-.43 0-.17.16-.36.35-.43.2-.07.54-.32.77-.54.23-.23.59-.56.8-.73a57.75 57.75 0 0 0 4.04-3.62c.15-.2.38-.37.53-.37.15 0 .31-.19.37-.41a.8.8 0 0 1 .53-.53c.23-.06.41-.2.41-.31 0-.12.5-.71 1.11-1.33 1.33-1.33 1.27-1.27 3.08-3.42.79-.93 1.56-1.77 1.72-1.86.16-.09.3-.28.3-.44 0-.15.16-.4.36-.54.2-.14.42-.43.5-.63.07-.2.3-.41.52-.47.2-.05.43-.3.5-.57.06-.26.34-.71.61-1.01.28-.3.5-.61.5-.7 0-.09.2-.34.43-.56.23-.22.53-.57.65-.77.6-1 1.12-1.78 1.42-2.08.19-.19.49-.6.67-.94l.77-1.39c.25-.43.58-.84.75-.9.17-.07.31-.26.31-.43 0-.39 1.35-2.5 1.6-2.5.1 0 .24-.32.31-.7.08-.38.26-.8.42-.93.15-.13.46-.6.68-1.06.37-.76.62-1.24 1.34-2.52.15-.27.41-.81.58-1.2.17-.37.43-.78.58-.9.14-.1.36-.57.48-1.03.12-.45.34-.93.5-1.06.16-.13.35-.52.42-.87.08-.35.3-.82.5-1.04.2-.22.47-.83.6-1.37.14-.53.37-1.01.52-1.07.18-.06.26-.4.25-.93-.01-.46-.06-.68-.11-.49-.05.19-.29.4-.53.48-.24.07-.73.37-1.08.66-1.26 1.02-1.76 1.37-2.2 1.5-.25.08-.46.23-.46.32 0 .22-1.94 1.5-2.55 1.7-.24.07-.45.2-.45.3 0 .22-1.94 1.5-2.56 1.69-.24.08-.44.23-.44.34 0 .1-.4.37-.9.6-.5.21-.9.47-.9.56 0 .1-.3.28-.67.4-.38.13-.83.4-1.02.6a2 2 0 0 1-.91.51c-.31.07-.61.25-.67.4-.06.15-.5.38-.96.51-.47.13-.97.4-1.11.6-.14.2-.52.42-.84.49-.32.07-.73.29-.91.5-.18.2-.66.42-1.06.5-.4.07-.85.3-1 .5-.13.2-.54.43-.9.5-.36.08-.8.28-.98.44-.19.16-.72.38-1.18.49-.46.1-1.06.35-1.32.56-.26.2-.84.44-1.27.51-.44.08-.8.21-.8.3 0 .2-1 .52-2.17.69-.49.07-1.1.29-1.35.5-.27.2-.99.42-1.7.5-.68.07-1.42.26-1.65.41-1.3.85-4.05.4-3.21-.52.19-.2.47-.38.62-.38.15 0 .33-.14.4-.3a6.97 6.97 0 0 1 2.56-1.7c.15 0 .4-.18.56-.4.15-.21.6-.53 1-.7.41-.17.74-.39.74-.49 0-.1.2-.25.45-.32a4.3 4.3 0 0 0 1.1-.67c1.25-1.01 1.82-1.42 2-1.42.1 0 .47-.25.8-.55 1.23-1.11 1.7-1.45 2.16-1.57.26-.07.53-.29.6-.5.07-.2.2-.38.3-.38.11 0 .39-.22.63-.5.24-.27.52-.5.62-.5.1 0 .42-.25.72-.55.3-.3 1.3-1.22 2.22-2.05 2.55-2.26 4.24-4 7.1-7.3l1.36-1.53c.46-.51.98-1.16 1.14-1.43.77-1.25 1.42-2.14 1.6-2.14.1 0 .24-.2.32-.45.07-.25.35-.7.6-1.01.27-.32.48-.68.48-.82 0-.14.23-.44.5-.68.28-.24.5-.58.5-.76 0-.18.23-.59.5-.92.28-.32.5-.71.5-.86 0-.15.17-.4.38-.54.2-.14.43-.55.5-.9.09-.35.31-.85.5-1.1.2-.25.47-.8.6-1.2.14-.42.37-.82.5-.9.14-.1.37-.6.5-1.16a4.2 4.2 0 0 1 .52-1.3c.14-.16.36-.65.47-1.07.12-.43.36-.93.53-1.13.17-.19.4-.86.5-1.5.1-.63.32-1.3.48-1.48.16-.17.35-.77.42-1.32.08-.55.3-1.24.52-1.54.25-.35.45-1.16.58-2.37a9.7 9.7 0 0 1 .5-2.37c.16-.28.38-1.46.5-2.61.14-1.36.33-2.27.56-2.6.37-.56.66-17.36.33-19.8l-.15-1.1-.22.82c-.12.46-.37 1-.55 1.2-.19.2-.4.62-.47.93-.08.3-.3.66-.5.8-.19.13-.4.53-.48.88-.08.35-.3.85-.5 1.1-.2.25-.43.67-.5.92-.08.25-.37.69-.63.98-.27.28-.49.67-.49.85 0 .18-.22.64-.5 1.01-.27.37-.5.8-.5.93 0 .14-.17.37-.37.51-.2.14-.44.54-.51.89-.08.35-.32.79-.53.98-.21.2-.39.46-.39.6 0 .13-.27.58-.6 1-.33.4-.6.85-.6.99 0 .13-.18.4-.4.6-.22.2-.4.48-.4.62 0 .15-.26.56-.57.92-.32.36-.64.86-.71 1.11-.08.25-.23.45-.33.45s-.3.3-.46.65c-.15.36-.46.82-.7 1.03-.24.21-.43.5-.43.65 0 .15-.18.38-.4.52-.22.13-.4.36-.4.49s-.21.46-.48.72c-.26.27-.62.76-.8 1.11-.18.35-.4.63-.5.63-.08 0-.26.23-.38.5-.13.28-.36.5-.52.5-.16 0-.35.2-.43.44-.16.52-1.33 1.76-1.66 1.76-.12 0-.23.13-.23.3 0 .16-.33.6-.75.99l-1.45 1.4c-1.3 1.3-2.84 1.3-1.82-.01.23-.3.42-.68.42-.87 0-.18.23-.64.5-1 .28-.38.5-.8.5-.94 0-.13.17-.37.38-.51.21-.15.49-.65.61-1.12.13-.48.35-.9.5-.96.15-.06.32-.37.38-.69.07-.32.3-.75.51-.97.22-.22.49-.73.6-1.13.11-.4.33-.88.48-1.06.15-.18.38-.7.5-1.16.14-.45.37-.88.53-.94.16-.06.35-.52.42-1.02.08-.5.3-1.12.5-1.37s.42-.8.5-1.23c.08-.42.3-.92.5-1.11.18-.2.44-.91.56-1.6.12-.69.35-1.45.51-1.7.16-.24.39-.96.5-1.6a4.2 4.2 0 0 1 .52-1.5c.18-.2.38-1.08.5-2.27.11-1.07.33-2.2.49-2.5.17-.33.38-1.7.5-3.25.1-1.47.34-3.2.5-3.84.4-1.5.4-5.12.02-6.67-.16-.64-.4-2.47-.52-4.07a15.64 15.64 0 0 0-.52-3.47 9.67 9.67 0 0 1-.48-2.34c-.13-1.3-.29-1.89-.55-2.16-.2-.2-.43-.8-.5-1.33a3.09 3.09 0 0 0-.44-1.3 3.34 3.34 0 0 1-.47-1.27c-.1-.52-.32-1.1-.5-1.3-.18-.2-.43-.66-.56-1.04a5.77 5.77 0 0 0-.57-1.19c-.2-.27-.41-.8-.49-1.15-.08-.36-.21-.65-.3-.65-.1 0-.37-.4-.6-.9-.25-.5-.52-.9-.61-.9-.1 0-.27-.32-.4-.7a4.13 4.13 0 0 0-.7-1.23c-1-1.12-1.14-1.33-1.4-1.96-.16-.36-.42-.71-.6-.78-.17-.07-.39-.33-.49-.58-.15-.36-.18-.25-.2.57 0 .56.14 1.3.31 1.66.18.36.4 1.6.51 2.85.12 1.4.3 2.4.5 2.7.22.32.4 1.47.59 3.52.14 1.68.37 3.5.5 4.05.32 1.4.32 11.9 0 13.1-.13.5-.36 2.18-.51 3.75-.17 1.84-.38 3.03-.57 3.33a8.55 8.55 0 0 0-.5 2.58c-.11 1.17-.34 2.37-.5 2.68-.17.3-.4 1.1-.52 1.75a4.23 4.23 0 0 1-.52 1.52 3.3 3.3 0 0 0-.43 1.41c-.06.6-.28 1.37-.48 1.72-.2.36-.43.97-.5 1.36-.07.39-.3.92-.51 1.19-.21.26-.46.9-.56 1.4-.1.51-.3 1.08-.46 1.27-.16.19-.4.71-.52 1.17-.13.46-.37.88-.52.94-.15.05-.34.47-.41.91-.08.45-.3 1.02-.51 1.28-.2.26-.43.71-.5 1.01-.08.3-.3.65-.5.79-.19.13-.41.54-.5.91-.07.37-.3.83-.49 1.02-.2.2-.41.6-.48.89-.08.3-.36.73-.63.96-.27.24-.5.57-.5.75 0 .32-.9 1.75-1.6 2.58-.22.25-.4.57-.4.7 0 .24-.54.99-1.45 1.98-.3.34-.55.7-.55.83 0 .12-.22.48-.5.8-.27.32-.5.65-.5.72 0 .08-.24.41-.55.75-.3.33-.73.84-.95 1.13-.22.3-.62.8-.9 1.11-.27.32-.81 1-1.2 1.53-.38.53-1.08 1.35-1.55 1.84a4.5 4.5 0 0 0-.85 1.07c0 .1-.22.27-.5.37-.27.1-.5.31-.5.46 0 .15-.2.46-.45.7-.25.22-.56.53-.7.68-.3.33-.5.53-1.49 1.52l-1 1-1 1-1 1a350.93 350.93 0 0 1-2.77 2.74c-.5.5-1.01.9-1.15.9-.14 0-.35.23-.47.5-.13.28-.32.5-.42.5-.1 0-.44.25-.74.55-.3.3-.72.68-.92.84a177.77 177.77 0 0 0-3.97 3.35l-.68.64 1.07.13c2.4.3 11.75.01 12.34-.38.3-.2 1.2-.45 2.06-.56.84-.1 1.73-.31 1.97-.47a6.23 6.23 0 0 1 1.8-.48c.9-.13 1.52-.34 1.8-.6.23-.22.8-.46 1.26-.53.46-.08.88-.26.94-.4.06-.16.48-.34.95-.42.46-.07 1-.3 1.22-.52.21-.2.67-.48 1.02-.6s.84-.37 1.1-.57c.24-.2.72-.41 1.04-.48.33-.07.68-.3.79-.5.1-.2.42-.41.7-.48.28-.07.5-.22.5-.33 0-.11.4-.37.87-.58.48-.2.93-.51 1-.69.06-.18.3-.32.51-.32.22 0 .53-.13.7-.3.33-.33.84-.4 1-.13.06.1-.06.33-.26.52-.21.19-.44.56-.5.83-.07.26-.2.48-.3.48-.1 0-.53.37-.97.83a46.26 46.26 0 0 1-2.25 2.22c-.54.52-1.07.95-1.18.95-.1 0-.27.14-.37.3-.25.45-3.25 2.9-3.54 2.9-.15 0-.3.18-.37.4a.87.87 0 0 1-.47.54c-.2.07-.49.3-.63.5s-.35.36-.47.36c-.11 0-.45.25-.75.55a7.5 7.5 0 0 1-2 1.52c-.28.13-.73.44-1 .7l-.83.74c-.17.15-.58.4-.9.53-.33.14-.78.42-1 .62a6.17 6.17 0 0 1-2.16 1.45c-.3.08-.63.3-.73.5-.11.2-.39.42-.62.5-.23.07-.59.3-.8.51-.2.21-.56.38-.78.38-.22 0-.56.16-.75.35a9.98 9.98 0 0 1-3.03 1.75c-.34.07-.62.2-.62.28 0 .09-.33.33-.75.54-.41.2-.96.54-1.22.73-.27.2-.67.35-.9.35-.24 0-.77.23-1.17.5-.4.28-.81.5-.9.5-.09 0-.56.21-1.06.47s-1.24.54-1.66.61c-.42.08-.92.3-1.12.5-.2.2-.71.43-1.14.51a2.8 2.8 0 0 0-1.1.44c-.19.16-.88.37-1.54.47-.66.09-1.46.35-1.77.57-.31.21-1.01.46-1.55.53s-1.2.27-1.45.44c-.26.17-1.25.39-2.2.49-1.11.1-1.87.29-2.1.5-.23.2-1 .38-2.21.5-1.02.1-2.22.34-2.66.51-.58.23-1.87.35-4.74.45-2.17.07-4 .18-4.06.24-.14.15.9 1.26 1.35 1.43.2.07.35.24.36.38 0 .15.33.53.72.86a31.69 31.69 0 0 1 2.37 2.05c.25.25.54.45.64.45.11 0 .37.2.58.42.21.23.72.6 1.13.8.42.22.75.47.75.56 0 .1.2.23.45.3.25.06.71.34 1.03.62.32.27.73.5.91.5.19 0 .64.23 1.01.5.38.28.8.5.93.5.14 0 .42.17.61.38.2.2.87.48 1.5.61.62.13 1.24.36 1.36.51.13.16.63.34 1.12.41.49.08 1.1.3 1.36.5.32.26 1.07.45 2.32.59 1 .11 2.08.33 2.37.48.55.29 1.3.37 6.73.72 1.76.12 3.52.26 3.9.33l.7.1-.75.4c-.41.2-.75.45-.75.54 0 .39-1.27.68-3.78.87-1.74.12-2.84.3-3.13.49-1.36.89-20.62.88-21.98 0-.34-.23-1.27-.39-3-.5-1.65-.12-2.66-.28-2.97-.48a5.55 5.55 0 0 0-1.8-.45 4.07 4.07 0 0 1-1.83-.53 4.6 4.6 0 0 0-1.91-.56 4.9 4.9 0 0 1-1.76-.47 3.07 3.07 0 0 0-1.24-.44 3.05 3.05 0 0 1-1.32-.53 3.43 3.43 0 0 0-1.45-.55 3.54 3.54 0 0 1-1.38-.47c-.2-.17-.66-.37-1.05-.45-.38-.08-.88-.3-1.1-.5-.22-.21-.79-.46-1.26-.57a3.46 3.46 0 0 1-1.2-.49c-.19-.16-.66-.39-1.04-.52-.4-.12-.86-.4-1.05-.62-.19-.22-.57-.4-.85-.4-.27 0-.68-.18-.9-.4a2.33 2.33 0 0 0-.9-.52c-.28-.07-.6-.28-.7-.47-.1-.19-.54-.45-1-.59-.45-.13-.87-.37-.93-.53-.06-.16-.28-.29-.48-.29-.2 0-.68-.27-1.06-.6-.37-.33-.81-.6-.98-.6-.16 0-.42-.14-.56-.31a3.42 3.42 0 0 0-.87-.63 2.87 2.87 0 0 1-.88-.69c-.14-.2-.4-.37-.55-.37-.16 0-.45-.18-.63-.4-.2-.22-.45-.4-.57-.4-.12 0-.52-.27-.89-.6-.37-.33-.73-.6-.8-.6-.08 0-.38-.22-.68-.5-.3-.27-.62-.5-.71-.5-.1 0-.24-.18-.3-.4-.08-.22-.25-.4-.4-.4-.32 0-2.46-1.72-4.44-3.54a5.3 5.3 0 0 0-.87-.66c-.22-.12-.4-.35-.4-.5 0-.17-.1-.3-.24-.3-.29 0-.25.04-5.01-4.74-4.97-4.98-4.75-4.74-4.75-5.02 0-.13-.13-.24-.3-.24-.15 0-.38-.18-.5-.4-.12-.23-.7-.9-1.3-1.5l-1.1-1.09v2.46c0 1.78.09 2.63.3 3.06.16.33.4 1.31.52 2.19.14 1.04.34 1.7.57 1.91.2.19.42.67.5 1.08.08.41.27.87.42 1.03.16.15.38.64.5 1.1.12.44.4 1 .61 1.23.22.23.45.62.5.86.07.24.24.49.38.54.14.06.37.43.5.83.13.4.42.92.64 1.16.84.92 1.56 2.01 1.56 2.34 0 .2.18.4.4.46.22.06.46.27.54.47.07.2.3.49.5.63.2.15.36.37.36.5 0 .14.25.48.55.76.3.28.78.8 1.05 1.17.28.37.75.91 1.05 1.21.3.3.55.64.55.75 0 .11.23.35.5.53.28.18.5.45.5.6 0 .15.19.32.42.38.23.06.46.3.52.52.06.22.28.46.48.53.21.06.38.2.38.3 0 .1.28.46.62.8.58.6.6.65.26 1.01-.43.49-.78.48-1.13 0-.15-.22-.67-.49-1.15-.6-.49-.1-.98-.33-1.1-.48-.11-.16-.5-.35-.85-.43-.36-.08-.76-.3-.9-.5-.13-.18-.54-.44-.9-.57a4.8 4.8 0 0 1-1.18-.63c-.29-.23-.64-.4-.79-.4-.14 0-.36-.18-.47-.4-.11-.2-.48-.44-.82-.51-.33-.08-.71-.3-.85-.52-.13-.2-.34-.38-.47-.38-.13 0-.5-.21-.8-.47-.31-.26-.8-.6-1.08-.75-1.2-.66-1.8-1.1-1.9-1.4-.05-.2-.32-.4-.58-.46-.5-.12-1.19-.64-2.12-1.57a2.4 2.4 0 0 0-.7-.55c-.08 0-.35-.2-.6-.45l-.72-.69a19.58 19.58 0 0 0-1.56-1.46c-.44-.38-.8-.8-.8-.92 0-.13-.2-.28-.42-.34a.8.8 0 0 1-.52-.5.77.77 0 0 0-.5-.5.8.8 0 0 1-.5-.52c-.07-.23-.24-.42-.38-.42-.15 0-.37-.18-.49-.4-.11-.21-.4-.6-.65-.86-1.42-1.51-3-3.53-3.33-4.27-.1-.23-.4-.65-.65-.93a5.77 5.77 0 0 1-1.44-2.19c-.07-.3-.23-.55-.34-.55-.12 0-.38-.4-.6-.87a4.08 4.08 0 0 0-.66-1.11c-.16-.13-.35-.56-.42-.97-.08-.4-.3-.85-.5-.99a1.6 1.6 0 0 1-.5-.8 2.4 2.4 0 0 0-.41-.86 3.8 3.8 0 0 1-.5-1.28 4.47 4.47 0 0 0-.58-1.45c-.2-.25-.44-.8-.51-1.22a2.7 2.7 0 0 0-.44-1.08 5.08 5.08 0 0 1-.5-1.79c-.11-.84-.32-1.55-.49-1.67-.16-.12-.38-.83-.5-1.61a7.64 7.64 0 0 0-.51-1.98c-.21-.38-.38-1.45-.5-3.2-.1-1.6-.3-2.93-.5-3.42-.7-1.67-.7-18.07 0-19.5.21-.46.4-1.59.5-3.26.13-1.78.28-2.66.48-2.9.17-.19.37-.87.45-1.52.14-1.22.45-2.12.72-2.12.08 0 .22-.52.3-1.15.07-.63.3-1.46.5-1.85.2-.38.47-1.09.59-1.56s.34-.9.5-.97c.15-.06.34-.44.4-.84.07-.4.29-.95.48-1.23.2-.27.46-.84.6-1.26.14-.42.38-.82.53-.87.15-.06.37-.47.49-.9.12-.43.34-.84.5-.9.16-.06.3-.24.3-.4 0-.16.2-.5.44-.74.25-.25.6-.79.8-1.2.19-.4.43-.73.54-.73.1 0 .25-.2.33-.45.07-.25.35-.67.61-.95l.87-.92c.22-.23.4-.49.4-.57 0-.36 4.7-5.09 6.42-6.47.7-.56 1.47-1.2 1.7-1.43.24-.23.51-.4.62-.4.1 0 .39-.24.63-.52.24-.27.7-.55 1.04-.62.33-.07.6-.25.6-.41 0-.16.26-.4.6-.52.32-.13.6-.3.6-.4 0-.09.39-.34.87-.55.48-.21.93-.51.98-.66.06-.15.35-.34.64-.41.3-.08.73-.31.96-.53.23-.21.61-.39.85-.39s.68-.22.97-.5c.3-.27.77-.55 1.06-.63.29-.07.69-.3.9-.5.2-.2.63-.37.95-.37.32 0 .84-.21 1.15-.47.3-.26.85-.54 1.2-.62.35-.07.74-.26.86-.41.13-.15.74-.38 1.37-.51a4.9 4.9 0 0 0 1.58-.6c.25-.19.79-.4 1.2-.48.41-.08.9-.28 1.08-.44.18-.16.94-.38 1.69-.5.77-.12 1.6-.39 1.92-.63.85-.63 3.68-.62 4.55.02.33.25 1.02.53 1.52.62.5.1 1.06.31 1.25.48.19.17.67.37 1.08.44.4.08.92.32 1.15.53.23.22.87.47 1.42.55.55.1 1.15.3 1.35.48.2.18.73.38 1.19.45.45.08 1 .3 1.23.51.22.2.78.43 1.26.5.47.07 1.15.3 1.5.5.36.2.97.42 1.36.5.39.07.91.29 1.16.49.25.2.99.45 1.64.57.64.12 1.32.35 1.5.52.18.17.46.3.62.3.55 0 1.77.42 2.05.7.16.16.85.38 1.54.49.68.1 1.4.33 1.57.49.18.15.75.35 1.27.43.53.07 1.17.3 1.43.51.27.21 1.07.46 1.82.57.74.1 1.5.32 1.67.48.18.16.78.36 1.33.43.55.08 1.24.3 1.52.5.3.21 1.21.47 2.1.59.86.12 1.76.35 2 .5.24.16.92.35 1.51.42s1.33.3 1.64.53c.4.28 1.1.44 2.36.56.99.1 2 .3 2.25.47.25.16 1.2.38 2.1.5.99.11 1.79.32 2 .51.26.24 1.05.38 2.89.52 1.38.1 2.84.32 3.23.49.42.17 2 .38 3.86.5 1.73.12 3.64.35 4.24.51 1.52.4 6.74.4 8.08 0 .55-.17 2.02-.4 3.28-.51a9.65 9.65 0 0 0 2.76-.52 5.93 5.93 0 0 1 1.77-.48c.84-.12 1.45-.33 1.7-.58.21-.21.71-.45 1.1-.52.4-.07.71-.22.71-.32s.39-.36.85-.58c1.32-.61 3.8-2.72 4.44-3.77l.61-1c.22-.37.6-.9.85-1.17.25-.28.45-.73.45-1 0-.28.18-.79.39-1.13.21-.35.48-1.2.6-1.9a6 6 0 0 1 .5-1.74c.4-.6.4-2.06 0-2.62a7.16 7.16 0 0 1-.52-2.1 7.96 7.96 0 0 0-.48-2.06 7.08 7.08 0 0 1-.5-1.8c-.14-.77-.37-1.49-.53-1.6-.15-.12-.37-.6-.47-1.07-.1-.47-.37-1.1-.57-1.4-.21-.29-.44-.89-.52-1.32-.07-.44-.3-.9-.5-1.05-.19-.14-.41-.5-.49-.79-.07-.3-.3-.75-.5-1.01-.21-.26-.44-.74-.51-1.07-.07-.33-.3-.68-.5-.79-.2-.1-.43-.39-.5-.62-.08-.23-.31-.6-.52-.8a2.24 2.24 0 0 1-.5-.99c-.07-.32-.26-.59-.41-.59-.16 0-.38-.27-.5-.6-.11-.33-.29-.6-.38-.6-.1 0-.32-.28-.5-.63-.31-.6-.7-1.08-1.61-2.03a2.8 2.8 0 0 1-.56-.89c-.08-.25-.26-.45-.4-.45-.15 0-.43-.25-.63-.55-.47-.73-7.88-8.12-8.44-8.43-.25-.13-.45-.36-.45-.51 0-.16-.2-.35-.45-.42a4.62 4.62 0 0 1-1.28-1.02 4.08 4.08 0 0 0-1.01-.87c-.1 0-.49-.27-.85-.6a4.17 4.17 0 0 0-1.04-.7c-.2-.07-.37-.25-.37-.4 0-.16-.22-.35-.5-.42s-.6-.3-.71-.5c-.11-.2-.32-.38-.46-.38-.15 0-.44-.19-.65-.42-.2-.23-.63-.55-.94-.71a7.48 7.48 0 0 1-1.79-1.37 5.7 5.7 0 0 0-1.2-.74c-.4-.19-.75-.43-.75-.55 0-.12-.13-.2-.28-.2-.16 0-.55-.23-.87-.5-.33-.28-.8-.6-1.07-.7a8.98 8.98 0 0 1-1.38-.91c-.5-.39-1.28-.88-1.75-1.1-.47-.2-.85-.47-.85-.57 0-.1-.22-.24-.49-.3a2.97 2.97 0 0 1-1.03-.63c-.3-.28-.69-.5-.87-.5-.18 0-.63-.22-1-.5a2.7 2.7 0 0 0-.94-.5c-.14 0-.41-.17-.61-.38-.2-.2-.73-.48-1.18-.6a2.64 2.64 0 0 1-1.07-.5c-.13-.17-.5-.35-.82-.42a1.6 1.6 0 0 1-.84-.48c-.13-.2-.52-.42-.85-.5-.91-.2-1.7-.55-1.7-.73 0-.1-.3-.23-.68-.3-.38-.07-.87-.3-1.1-.51a3.21 3.21 0 0 0-1.32-.56c-.5-.1-1.07-.3-1.25-.48a2.78 2.78 0 0 0-1.11-.45c-.42-.08-.92-.3-1.1-.5-.19-.2-.87-.45-1.52-.57a4.28 4.28 0 0 1-1.52-.52 3.1 3.1 0 0 0-1.3-.43 2.85 2.85 0 0 1-1.33-.5c-.23-.23-.8-.41-1.52-.49a7.8 7.8 0 0 1-1.95-.48c-.44-.2-1.37-.46-2.08-.58a4.48 4.48 0 0 1-1.62-.52c-.23-.2-1.02-.37-2.35-.49-1.1-.1-2.3-.3-2.68-.48-.37-.17-1.78-.4-3.13-.52-1.55-.13-2.7-.34-3.1-.55-.55-.29-1.57-.35-7.35-.42l-6.72-.09-1.58-1.46c-2.18-2.02-2.43-2.22-3.69-3-.6-.37-1.3-.86-1.56-1.08-.26-.23-.59-.4-.73-.4s-.47-.18-.73-.38-.81-.48-1.23-.62c-.4-.13-.82-.37-.9-.53-.1-.16-.63-.36-1.2-.45a4.84 4.84 0 0 1-1.51-.49 4.68 4.68 0 0 0-1.57-.46c-1.1-.14-1.77-.39-2-.75-.17-.25-9.97-.38-11.27-.15" fill="#BA2BD2"/></g></svg>