<svg width="256" height="247" xmlns="http://www.w3.org/2000/svg" preserveAspectRatio="xMidYMid"><defs><radialGradient cx="78.76%" cy="37.85%" fx="78.76%" fy="37.85%" r="89.87%" id="a"><stop stop-color="#F80090" offset="0%"/><stop stop-color="#4D008E" offset="100%"/></radialGradient><radialGradient cx="68.74%" cy="4.4%" fx="68.74%" fy="4.4%" r="81.73%" id="b"><stop stop-color="#57008E" offset="0%"/><stop stop-color="#5C008E" offset="29.17%"/><stop stop-color="#F80090" offset="100%"/></radialGradient><linearGradient x1="18.24%" y1="0%" x2="81.16%" y2="84.34%" id="c"><stop stop-color="#F70090" offset="0%"/><stop stop-color="#E50090" offset="66.97%"/><stop stop-color="#D6008F" stop-opacity=".2" offset="82.71%"/><stop stop-color="#C10090" stop-opacity="0" offset="100%"/></linearGradient><linearGradient x1="64.91%" y1="71.56%" x2="44.29%" y2="50%" id="d"><stop stop-color="#B2008F" stop-opacity=".15" offset="0%"/><stop stop-color="#F70090" stop-opacity=".4" offset="40.04%"/><stop stop-color="#F60090" stop-opacity=".89" offset="64.9%"/><stop stop-color="#FF0090" offset="100%"/></linearGradient></defs><path d="M16.69 157.13C3.57 87.38 38.24 20.1 117.8 11.17 106.84-.56 91.85-.65 84.95.77c-12.18 3.89-11.8 11.77-25.61 21.95-13.73 7.84-20.63 1.84-30.63 9.97-9.99 8.07-3.02 26.6-7.2 30.2C17.34 70.09 4.45 76.5 2.1 85.6.17 97.24 7.37 105.55 7.1 115.53c.83 8.3-8.28 13-6.97 19.75 3.92 11 11.47 17.62 15.03 20.68.82.57 1.68 2 1.53 1.17z" fill="#FF0090"/><path d="M158.28 60.58a5.26 5.26 0 1 1 0-10.53 5.26 5.26 0 0 1 0 10.53zM19.76 164.73C7.15 104.12 46.16 53.47 121.7 78.4c44.33 25.93 100.1 24.25 102.6 7.48 6.21-20.1-28.25-61.5-79.78-72.3C42.28-6.39-12.83 104.11 19.76 164.72z" fill="url(#a)"/><path d="M187.46 171.5c15.18 1.64 29.59-2 42.94-12.89-20.17 22.5-45.4 33.82-74.34 36.9 13.82 11.74 27.15 17.04 39.9 14.77-35.43 9.78-65.11-.98-101.22-36.94-1.89 9.68 8.33 24.76 18.87 34.39-61.14-26.5-66.5-109.08 8.06-129.39C44.38 41.21.69 113.36 22.16 172.5c21 45.54 76.98 80.6 138.33 72.89 29.8-3.65 74.3-24.2 92.48-72.9-12.8 11.5-35.71 21.52-45.93 22.29 34.59-17.3 53.26-46.67 48.02-86.81-7.16 17.05-16.62 30.15-28.44 39.15 25.12-39.15 20.8-59.4 2.21-81.64 13.3 36.57-3.9 77.16-41.37 106.02z" fill="url(#b)"/><path d="M169.7 213.63c-2.62-.5 5.96 3.47-10.62-.92-16.58-4.39-33.46-8.62-64.34-39.37-1.89 9.68 8.33 24.76 18.87 34.39 28.45 19.83 9.1 10.56 52.44 25.54 3.48-6.92 3.66-13.07 3.66-19.64z" fill="url(#c)"/><path d="M114.6 57.85s3.77-5.56 5.24-8.07c1.8-3.07 4.55-8.68 4.55-8.68s-29-9.46-36.12-10.61c-22.12 5.74-22.2 15.01-9.83 29.2 1.37 1.58 36.16-1.84 36.16-1.84z" fill="url(#d)"/></svg>