<svg enable-background="new 0 0 500 500" height="290" width="348" xmlns="http://www.w3.org/2000/svg">
  <filter id="a" color-interpolation-filters="sRGB" height="1" width="1" x="0" y="0">
    <feGaussianBlur stdDeviation="4"/>
  </filter>
  <filter id="b" color-interpolation-filters="sRGB" height="1" width="1" x="0" y="0">
    <feGaussianBlur stdDeviation="4"/>
  </filter>
  <path d="M238 12l77 43 1 31-51-25-1 21 28 13 1 33-27-11 2 52-29-16z" fill="none" filter="url(#a)"/>
  <path d="M113 175l97-55 2 28-30 17 1 109-26 14-4-105-37 21-3-28z" fill="none" filter="url(#b)" transform="translate(-80 -113) scale(1.02628)"/>
  <path d="M166 140l21-12 21 12-21 12-21-12z" fill="#f6bd3a"/>
  <path d="M103 104l84-48 63 36-21 36-42-24-63 36z" fill="#f6bd3a"/>
  <path d="M166 188v-24l21-12 21-12v24l-21 12v24l-21 12zm0-48l-21-12-21 12v-24l63-36v48zm63-24v-12l21-12v24l-21 12z" fill="#eb8c23"/>
  <path d="M145 199v-71l21-12v24l21 12v24l-21-11v47zm-32-65l-10-7v-23l21 12v24zm74-30V80l42 24v24z" fill="#e35a2b"/>
  <path d="M30 237v46h-8v-46H6v-8h39v8zm42 17v6l-26 7 1 3 3 3 3 2 3 1 5-1 4-2 5 5-6 4-8 1-7-1-6-4-3-7-2-9 2-9 3-6 6-4 7-2 7 2 6 4 3 7zm-8 1l-2-4-2-2h-5c-2 0-5 1-7 3l-2 9zm37 27v-22c0-5-1-7-2-9-2-2-4-2-6-2l-7 2-2 8v23h-8v-40h8v4c1-1 3-3 5-3l5-2c5 0 9 2 11 5s4 7 4 13v23zm40-10l-1 5-4 4-4 2-6 1-8-2-7-4 3-5a22 22 0 0 0 12 3c5 0 7-1 7-4l-2-4-7-3-6-2-3-3-2-3-1-4 1-5 3-3 4-3a22 22 0 0 1 13 1l6 3-3 6-5-2-5-1-5 1-1 3v1l2 1 2 2 3 1 6 3 5 2 2 4 1 5zm37-10l-2 9-4 7a17 17 0 0 1-13 6 17 17 0 0 1-12-6l-4-7-1-8 1-9 4-7 6-4a18 18 0 0 1 23 11l2 8zm-8 1c0-4-1-8-3-10s-4-4-8-4c-3 0-5 2-7 4l-2 9c0 5 1 8 3 11a9 9 0 0 0 11 2l3-3a16 16 0 0 0 3-9zm33-12l-3-1h-3c-3 0-4 0-6 2l-2 8v23h-8v-40h8v3a11 11 0 0 1 9-4h4l3 1z" fill="#ef6639"/>
  <path d="M216 237v14h16v8h-16v24h-8v-54h35v8zm28 46v-52l8-4v56h-8zm48-21l-1 9-4 7a17 17 0 0 1-13 6l-7-2-6-4c-1-2-3-4-3-7l-2-8 2-9a19 19 0 0 1 9-11 18 18 0 0 1 14 0 17 17 0 0 1 10 11l1 8zm-8 1c0-4-1-8-3-10-1-2-4-4-7-4s-6 2-7 4c-2 2-3 6-3 9 0 5 1 8 3 11a9 9 0 0 0 11 2l3-3a17 17 0 0 0 3-9zm47 20h-7l-5-21-1-4-1-4-1 4-1 5-6 20h-7l-11-40h8l5 19 1 5 1 4 1-4 1-5 6-19h6l5 19 2 5v4l1-4 1-5 5-19h8z" fill="#a6a7a9"/>
</svg>
