<svg xmlns="http://www.w3.org/2000/svg" height="305" width="255">
  <g fill="#333">
    <path d="M39.25 292.46l-6.98-25.887-7.068 25.887q-.824 2.945-1.325 4.24-.471 1.267-1.678 2.298-1.208 1.001-3.21 1.001-1.62 0-2.68-.618-1.031-.59-1.679-1.679-.648-1.119-1.06-2.62-.412-1.532-.736-2.828l-7.186-29.067Q5 260.654 5 259.329q0-1.679 1.178-2.827t2.915-1.149q2.386 0 3.21 1.532t1.443 4.447l5.655 25.209 6.332-23.59q.706-2.709 1.266-4.122.56-1.414 1.826-2.445t3.446-1.03q2.208 0 3.416 1.089 1.237 1.06 1.708 2.327t1.266 4.181l6.391 23.59 5.654-25.21q.413-1.973.766-3.092.383-1.119 1.266-2.002.913-.884 2.621-.884 1.709 0 2.887 1.149 1.207 1.119 1.207 2.827 0 1.207-.648 3.858l-7.186 29.067q-.736 2.945-1.237 4.33-.47 1.354-1.649 2.385-1.148 1.03-3.269 1.03-2.002 0-3.21-1-1.207-1.002-1.679-2.24-.47-1.266-1.325-4.299zM85.63 285.63H69.904q.03 2.739 1.09 4.83 1.09 2.09 2.856 3.151 1.797 1.06 3.947 1.06 1.442 0 2.62-.324 1.208-.353 2.327-1.06 1.12-.736 2.062-1.56.942-.825 2.444-2.239.618-.53 1.767-.53 1.237 0 2.003.677t.765 1.915q0 1.09-.854 2.562-.854 1.443-2.591 2.798-1.708 1.325-4.33 2.208-2.591.884-5.978.884-7.745 0-12.045-4.418-4.3-4.417-4.3-11.986 0-3.563 1.06-6.596 1.06-3.063 3.093-5.243t5.006-3.327q2.975-1.178 6.597-1.178 4.712 0 8.07 2.002 3.386 1.973 5.065 5.125 1.678 3.15 1.678 6.42 0 3.033-1.737 3.946-1.738.883-4.889.883zm-15.726-4.565h14.578q-.294-4.123-2.238-6.155-1.914-2.061-5.066-2.061-3.004 0-4.947 2.09-1.914 2.062-2.327 6.126zM105.6 259.95v12.281q2.268-2.356 4.624-3.593 2.356-1.266 5.83-1.266 4.006 0 7.01 1.914 3.033 1.885 4.682 5.507 1.68 3.593 1.68 8.54 0 3.653-.943 6.715-.913 3.034-2.68 5.272t-4.3 3.475q-2.503 1.207-5.537 1.207-1.855 0-3.504-.441-1.62-.442-2.769-1.149-1.148-.736-1.973-1.502-.795-.766-2.12-2.297v.795q0 2.268-1.09 3.446-1.09 1.148-2.768 1.148-1.708 0-2.739-1.148-1.001-1.178-1.001-3.446v-35.104q0-2.444.972-3.681 1.001-1.266 2.768-1.266 1.855 0 2.857 1.207 1 1.178 1 3.387zm.383 23.884q0 4.8 2.18 7.392 2.208 2.562 5.771 2.562 3.034 0 5.213-2.62 2.209-2.651 2.209-7.57 0-3.18-.913-5.477t-2.592-3.534q-1.678-1.266-3.917-1.266-2.297 0-4.093 1.266-1.797 1.237-2.827 3.622-1.031 2.356-1.031 5.625zM148.24 280.8h-3.063v13.871q0 2.739-1.207 4.035T140.819 300q-2.091 0-3.24-1.354-1.148-1.355-1.148-3.976v-33.22q0-2.827 1.266-4.094t4.094-1.266h14.224q2.945 0 5.036.265 2.09.236 3.77 1.001 2.031.854 3.592 2.445 1.56 1.59 2.356 3.71.825 2.091.825 4.447 0 4.83-2.74 7.716-2.709 2.886-8.245 4.094 2.326 1.237 4.447 3.652t3.77 5.153q1.678 2.71 2.591 4.919.942 2.179.942 3.004 0 .854-.56 1.708-.53.824-1.472 1.295-.942.501-2.179.501-1.472 0-2.474-.707-1.001-.677-1.737-1.737-.707-1.06-1.944-3.122l-3.505-5.831q-1.884-3.21-3.386-4.889-1.473-1.678-3.004-2.297-1.532-.618-3.858-.618zm5.006-18.141h-8.069v11.868h7.834q3.151 0 5.3-.53 2.15-.56 3.27-1.856 1.148-1.325 1.148-3.622 0-1.796-.912-3.151-.913-1.384-2.533-2.062-1.532-.648-6.037-.648zM204.99 263.31h-9.542v31.364q0 2.71-1.207 4.035-1.208 1.295-3.122 1.295-1.944 0-3.18-1.325-1.208-1.325-1.208-4.005V263.31h-9.542q-2.238 0-3.327-.972-1.09-1.001-1.09-2.62 0-1.68 1.119-2.651 1.149-.972 3.298-.972h27.801q2.268 0 3.358 1.001 1.119 1.001 1.119 2.621t-1.12 2.621q-1.118.972-3.357.972zM249.9 285.63q0 2.062-1.03 4.476-1.002 2.386-3.181 4.712-2.18 2.298-5.566 3.74-3.387 1.444-7.893 1.444-3.416 0-6.214-.648t-5.095-2.003q-2.267-1.384-4.182-3.622-1.708-2.032-2.915-4.536-1.208-2.532-1.826-5.389-.59-2.857-.59-6.067 0-5.212 1.503-9.335 1.531-4.123 4.358-7.039 2.827-2.945 6.627-4.476 3.799-1.532 8.098-1.532 5.242 0 9.336 2.091t6.273 5.183q2.18 3.063 2.18 5.802 0 1.502-1.061 2.65-1.06 1.15-2.562 1.15-1.679 0-2.533-.796-.825-.795-1.855-2.739-1.709-3.21-4.035-4.8-2.297-1.59-5.684-1.59-5.39 0-8.6 4.093-3.18 4.094-3.18 11.633 0 5.036 1.414 8.393 1.413 3.328 4.005 4.977t6.067 1.65q3.77 0 6.36-1.856 2.622-1.885 3.947-5.507.56-1.708 1.384-2.768.825-1.09 2.65-1.09 1.562 0 2.68 1.09 1.12 1.09 1.12 2.71z"/>
  </g>
  <path d="M140.61 183.92c0 29.746-24.112 53.863-53.859 53.863-29.75 0-53.862-24.117-53.862-53.863S57 130.057 86.75 130.057c29.747 0 53.859 24.117 53.859 53.863" fill="#f60"/>
  <path d="M247.14 108.51c0 29.743-24.112 53.863-53.859 53.863-29.75 0-53.862-24.12-53.862-53.863 0-29.746 24.112-53.867 53.862-53.867 29.747 0 53.859 24.12 53.859 53.867" fill="#fc0"/>
  <path d="M115.48 107.32c0 29.743-24.112 53.863-53.863 53.863-29.742 0-53.858-24.12-53.858-53.863 0-29.746 24.116-53.867 53.858-53.867 29.75 0 53.863 24.12 53.863 53.867" fill="#0089cc"/>
  <path d="M223.2 183.92c0 29.746-24.112 53.863-53.867 53.863-29.742 0-53.858-24.117-53.858-53.863s24.116-53.863 53.858-53.863c29.755 0 53.867 24.117 53.867 53.863" fill="#009939"/>
  <path d="M181.31 59.44c0 29.746-24.116 53.863-53.863 53.863S73.585 89.186 73.585 59.44 97.7 5.577 127.447 5.577 181.31 29.694 181.31 59.44" fill="#bf0000"/>
  <path d="M139.42 108.51c0 1.133.099 2.243.17 3.36 23.89-5.512 41.721-26.872 41.721-52.437 0-1.134-.098-2.247-.17-3.364-23.89 5.515-41.721 26.876-41.721 52.441" fill="#fc0007"/>
  <path d="M146.53 135.18c9.282 16.228 26.726 27.192 46.76 27.192 8.165 0 15.876-1.872 22.813-5.125-9.279-16.227-26.722-27.192-46.76-27.192-8.165 0-15.876 1.872-22.813 5.125" fill="#1cd306"/>
  <path d="M115.48 183.92c0 13.16 4.73 25.202 12.571 34.556 7.834-9.354 12.564-21.396 12.564-34.556s-4.73-25.202-12.564-34.556c-7.84 9.354-12.571 21.396-12.571 34.556" fill="#0f7504"/>
  <path d="M40.29 156.77a53.611 53.611 0 0 0 21.325 4.41c19.836 0 37.118-10.751 46.467-26.714a53.623 53.623 0 0 0-21.324-4.406c-19.837 0-37.122 10.751-46.468 26.71" fill="#0c5e87"/>
  <path d="M73.82 54.89c-.126 1.5-.233 3.009-.233 4.544 0 25.546 17.803 46.887 41.666 52.422.123-1.5.23-3.009.23-4.54 0-25.546-17.8-46.894-41.663-52.426" fill="#6b0001"/>
  <path d="M78.85 177.25h-8.426c-7.438 0-13.487-6.03-13.487-13.448V87.537c0-7.42 6.049-13.452 13.487-13.452h105.653c7.438 0 13.483 6.033 13.483 13.452v76.265c0 7.419-6.045 13.448-13.483 13.448h-35.993l-72.214 35.4 10.98-35.4z" fill="#fff"/>
</svg>
