<svg xmlns="http://www.w3.org/2000/svg" width="335.88" height="355.81"><path d="M167.4 0L0 58.91l26.45 219.33 141.13 77.57 141.86-78.62 26.44-219.32L167.4 0z" fill="#b3b3b3"/><path d="M319.19 70.54L167 18.65v318.63l127.53-70.58 24.64-196.16z" fill="#af2b2d"/><path d="M18.78 71.48l22.67 196.15 125.56 69.65V18.65L18.8 71.48z" fill="#df2e31"/><path d="M202.29 177.13l-35-73.08-30.8 73.08h65.8zm13.34 30.73h-92.77l-20.75 51.9-38.6.72L167 30.22l107.12 230.26h-35.78l-22.72-52.62z" fill="#f2f2f2"/><path d="M167.01 30.22l.28 73.83 34.96 73.14h-35.16l-.08 30.62 48.61.05 22.73 52.63 36.93.69L167.01 30.22z" fill="#b3b3b3"/></svg>