<svg width="256" height="278" xmlns="http://www.w3.org/2000/svg" preserveAspectRatio="xMidYMid">
  <path d="M90 60c-36-7-65 0-76 20-9 15-6 34 6 55a4 4 0 1 0 6-4c-10-19-13-35-6-48 10-16 35-22 69-16a4 4 0 1 0 1-7zm54-34a18 18 0 1 1 2-7c29 15 50 67 50 127 0 24-4 48-10 69a4 4 0 1 1-7-3c6-19 9-42 9-66 0-57-18-105-44-120zM16 193a18 18 0 0 1 2 0 18 18 0 1 1-9 3c-3-34 32-78 85-109 22-13 45-22 67-26a4 4 0 0 1 1 7c-21 5-43 13-64 26-50 28-83 70-82 99zm207 27a18 18 0 0 1-3-9 18 18 0 1 1 18 18 18 18 0 0 1-10-3c-29 16-83 8-134-22-22-12-41-27-55-44a4 4 0 0 1 5-5c14 16 33 31 54 43 48 28 99 36 125 22zm-1-64a4 4 0 0 1-6-5c22-26 29-51 20-67-7-12-22-19-44-19a4 4 0 1 1 0-8c24 1 42 8 50 23 12 20 3 48-20 76zM73 221a4 4 0 0 1 7-2c11 32 29 51 48 51 14 0 27-10 38-28a4 4 0 0 1 6 4c-12 20-27 31-44 31-23 1-43-21-55-55zm176-10a10 10 0 1 0-21 0 10 10 0 0 0 21 0zM18 221a10 10 0 1 0 0-20 10 10 0 0 0 0 20zM128 28a10 10 0 1 0 0-21 10 10 0 0 0 0 21zm3 130a13 13 0 1 1-6-25 13 13 0 0 1 6 25z" fill="#47848F"/>
</svg>
