<svg width="256" height="278" xmlns="http://www.w3.org/2000/svg" preserveAspectRatio="xMidYMid"><path d="M90.32 59.65c-36.27-6.61-64.94.3-76.37 20.1-8.52 14.77-6.09 34.35 5.91 55.28a3.72 3.72 0 1 0 6.46-3.7C15.5 112.48 13.4 95.57 20.39 83.46c9.5-16.44 35.07-22.6 68.6-16.5a3.72 3.72 0 1 0 1.33-7.31zm53.63-33.69a17.8 17.8 0 1 1 1.96-7.4c29.46 15.24 49.93 67.2 49.93 127.23 0 24.7-3.45 48.38-9.88 68.92a3.72 3.72 0 1 1-7.1-2.22c6.2-19.8 9.55-42.75 9.55-66.7 0-56.52-18.8-105.16-44.46-119.83zM16.47 193.32a18.05 18.05 0 0 1 1.33-.05 17.8 17.8 0 1 1-8.65 2.24c-2.68-33.27 32.28-77.86 85.12-108.36 21.95-12.67 44.8-21.67 66.27-26.27a3.72 3.72 0 0 1 1.56 7.28c-20.7 4.43-42.82 13.14-64.11 25.43-49.76 28.73-82.66 70.13-81.52 99.73zm206.26 26.54a17.72 17.72 0 0 1-2.33-8.8 17.8 17.8 0 1 1 17.8 17.8 17.72 17.72 0 0 1-10.38-3.33c-28.39 16.7-82.62 8.18-133.66-21.29-21.72-12.54-40.77-27.65-55.44-43.77a3.72 3.72 0 0 1 5.5-5C58.36 171 76.8 185.64 97.88 197.8c48.17 27.81 98.89 36.09 124.85 22.06zm-1.17-63.9a3.72 3.72 0 0 1-5.67-4.81c21.94-25.93 29.34-51.09 19.86-67.5-6.87-11.9-22.16-18.52-43.36-18.8a3.72 3.72 0 1 1 .1-7.43c23.57.3 41.31 7.98 49.7 22.51 11.4 19.76 3.12 47.97-20.63 76.02zm-149 65.53a3.72 3.72 0 0 1 7-2.5c11.48 32.04 29.6 51.07 48.57 51.07 13.64 0 26.9-9.77 37.7-27.74a3.72 3.72 0 0 1 6.38 3.84c-12.02 19.99-27.43 31.34-44.08 31.34-22.84 0-43.15-21.34-55.57-56zm176-10.42a10.36 10.36 0 1 0-20.72 0 10.36 10.36 0 0 0 20.72 0zM17.8 221.43a10.36 10.36 0 1 0 0-20.72 10.36 10.36 0 0 0 0 20.72zM128.13 28.16a10.36 10.36 0 1 0 0-20.72 10.36 10.36 0 0 0 0 20.72zm2.72 130.22a12.88 12.88 0 1 1-5.44-25.18 12.88 12.88 0 0 1 5.44 25.18z" fill="#47848F"/></svg>