<!-- Generator: Adobe Illustrator 21.1.0, SVG Export Plug-In  -->
<svg version="1.1"
	 xmlns="http://www.w3.org/2000/svg" xmlns:xlink="http://www.w3.org/1999/xlink" xmlns:a="http://ns.adobe.com/AdobeSVGViewerExtensions/3.0/"
	 x="0px" y="0px" width="260.085083px" height="260.085144px" viewBox="0 0 260.085083 260.085144"
	 style="enable-background:new 0 0 260.085083 260.085144;" xml:space="preserve">
<style type="text/css">
	.st0{fill:#3D5AFE;}
	.st1{fill:#FFFFFF;}
</style>
<defs>
</defs>
<g>
	<path class="st0" d="M0,195.063858c0,35.9102936,29.1110477,65.021286,65.0212326,65.021286h130.042572
		c35.9102936,0,65.0212708-29.1109924,65.0212708-65.021286V65.021286C260.085083,29.1109962,230.9741058,0,195.0638123,0
		H65.0212326C29.1110477,0,0,29.1109962,0,65.021286V195.063858z"/>
	<path class="st1" d="M238.4113312,130.0405579c-11.969986,0-21.6736603-9.7036591-21.6736603-21.6737061v-0.0000534
		l-0.0000916,0.0009537V65.0193863c0-11.9701004-9.7036743-21.6737671-21.6737671-21.6737671h-21.6737671v108.3566971
		L86.6951065,43.370594v-0.0211105H65.0213394c-11.9700966,0-21.6737633,9.7036629-21.6737633,21.6737633v43.3540344
		c-0.005661,11.9652786-9.7070503,21.6632767-21.6736012,21.6632767l0,0v0.0001678l0,0
		c11.9665508,0,21.6679401,9.697998,21.6736012,21.6632843v43.3617554c0,11.9700928,9.7036667,21.6737671,21.6737633,21.6737671
		h21.6737671V108.4040527l86.6949387,108.3316193h21.6738739c11.969986,0,21.6736603-9.7036743,21.6736603-21.6737213v-43.3484192
		l0.0000916,0.0009613v-0.000061c0-11.970047,9.7036743-21.6737061,21.6736603-21.6737061h0.0001068v-0.0001678H238.4113312z"/>
</g>
</svg>
