<svg xmlns="http://www.w3.org/2000/svg" preserveAspectRatio="xMinYMin meet" viewBox="0 0 256 290"><path fill="#008CC1" d="M243 132a122 122 0 1 1-243 0 122 122 0 0 1 243 0"/><path fill="#FFF" d="M54 92a10 10 0 1 1-10-10 10 10 0 0 1 10 10m2 26a10 10 0 1 1-10-9 10 10 0 0 1 10 9m6 29a10 10 0 1 1-20 0 10 10 0 0 1 20 0m13 25a10 10 0 1 1-20 0 10 10 0 0 1 20 0m104 35a10 10 0 1 1-19 0 10 10 0 0 1 19 0m18-21a10 10 0 1 1-20 0 10 10 0 0 1 20 0M145 39a10 10 0 1 1-19 0 10 10 0 0 1 19 0m-25-9a10 10 0 1 1-20 0 10 10 0 0 1 20 0"/><path fill="#66B245" d="M189 38a65 65 0 1 1 0 129 65 65 0 0 1 0-129"/><path fill="#FFF" d="M189 169a67 67 0 1 1 0-133 67 67 0 0 1 0 133zm0-130a63 63 0 1 0 0 127 63 63 0 0 0 0-127z"/><path fill="#66B245" d="M100 182a53 53 0 1 1 0 106 53 53 0 0 1 0-106"/><path fill="#FFF" d="M100 290a55 55 0 1 1 0-110 55 55 0 0 1 0 110zm0-107a51 51 0 1 0 0 103 51 51 0 0 0 0-103z"/><path fill="#66B245" d="M56 2a35 35 0 1 1 0 71 35 35 0 0 1 0-71"/><path fill="#FFF" d="M56 74a37 37 0 1 1 0-74 37 37 0 0 1 0 74zm0-70a34 34 0 1 0 0 67 34 34 0 0 0 0-67z"/></svg>