<svg width="373" height="400" xmlns="http://www.w3.org/2000/svg">
  <g fill="none">
    <path fill="#4A4A4A" d="M186 0L0 66l28 247 158 87 158-87 28-247"/>
    <path fill="#545454" d="M186 0v400l158-87 28-247"/>
    <path d="M149 84l-1 1a8 8 0 0 1-2 0l-1 1h-2l-1 1-1 1h-1l-1 1v1h-1l-1 1v1h-1l-4 4a167 167 0 0 0-6 6l-1 1-2 1-1 1h-2l-1 1-2 1h-2l-3 1h-3l-3 1a10 10 0 0 0-3 0l-2 1-1 1h-1l-1 1h-1a11 11 0 0 0-3 4l-1 1v2l-1 3v9l-1 9v1l-1 1v1a43 43 0 0 1-8 8l-1 1a130 130 0 0 0-6 7h-1v2a3 3 0 0 1-1 1v5l1 3v3l1 2v2l1 1v1l1 1v1l1 1v9a7 7 0 0 0 0 2 4 4 0 0 1-1 2v1a7 7 0 0 1-2 2v1h-1v1l-1 1a4 4 0 0 0 0 1l-1 1v4l1 2v2l1 1v1l1 1 1 1 1 2h1v1l1 1v1h1v1l2 1 2 3 1 1v1l1 2v1l1 2v1l1 1v1l1 2v1l1 1v1l1 1v1l1 1v1l1 1v1l1 1 1 1v1l1 1v1l1 1v1l1 1 1 1 2 3v1l1 1a33 33 0 0 0 3 3l1 1v1a39 39 0 0 1 4 4 5 5 0 0 1 1 1l2 2 2 2 4 4 1 1h1l1 1 1 1a44 44 0 0 0 5 4l2 1v1h1l1 1 1 1h2v1l1 1h2l1 1 1 1h1l1 1h1l1 1 1 1h1l1 1h2l1 1 1 1h3l1 1 1 1h3l1 1 2 1h2a4 4 0 0 1 2 1l2 1h2l2 1h2l2 1h3l3 1h3a141 141 0 0 0 41-3h3l1-1 2-1h3l2-1 1-1a3 3 0 0 0 1 0h1l2-1h1a4 4 0 0 0 1-1l1-1h2l1-1h1l1-1 3-1a6 6 0 0 0 1-1l1-1h1l1-1a3 3 0 0 0 1 0v-1l1-1h1l1-1h1l2-2 1-1h1l1-1v-1a58 58 0 0 0 4-3l1-1a1 1 0 0 1 1-1l1-1 3-4 2-2h1v-1l1-1 1-1v-1h1v-1l2-2 1-1v-2l1-1 2-2v-1l1-1v-1a41 41 0 0 1 3-5v-1l1-1v-1l1-1v-1l1-1v-1-1 1l-2 1-2 1-3 2-3 2-1 1-1 1h-1l-1 1a2 2 0 0 1-1 0l-1 1-1 1h-1l-1 1h-1l-1 1h-1-1l-1 1-2 1h-1-1l-2 1-1 1h-2-5 1v-1a7 7 0 0 1 3-1v-1l1-1h2a4 4 0 0 0 1-1l2-1 1-1 2-2h1v-1h1l1-1 2-2 7-7 1-2 1-1 2-2v-1l1-1v-1h1v-1l1-1v-1h1v-1l1-1v-2l1-1v-1a4 4 0 0 1 1-1v-1l1-1v-2l1-1v-2l1-1v-2a10 10 0 0 1 1-3v-2l1-3v-21 1l-1 1v1l-1 1v1l-1 1v1l-1 1v1l-1 1-1 1v1l-1 1-1 1v1l-1 1v1l-1 1v1h-1v1l-1 1-1 1v1l-1 1-1 1-1 1-2 2-1 1-1 2h-2v-1l1-1v-1h1v-2l1-1 1-1v-1l1-1v-2l1-1v-1l1-1v-1l1-1v-2l1-2v-1a4 4 0 0 1 1-2v-2l1-2v-4l1-4v-6l-1-4a16 16 0 0 0 0-4 10 10 0 0 1-1-2v-2l-1-2a3 3 0 0 0 0-1 3 3 0 0 1-1-1v-1l-1-1a6 6 0 0 0 0-2l-1-1-1-1v-1l-1-1a4 4 0 0 0 0-1l-2-2v-1l-1-1v3l1 3v2l1 4v4a89 89 0 0 1-1 20 9 9 0 0 0 0 3l-1 2v2a4 4 0 0 1-1 2 3 3 0 0 0 0 1l-1 2v1l-1 1v2l-1 1v1l-1 1v1l-1 1v1l-1 1v1l-1 1v1l-1 1v1l-2 2v1l-2 2v1h-1v1l-1 1a20 20 0 0 0-2 2l-1 2-1 2a5 5 0 0 0-1 1h-1l-1 1v1l-2 1-1 1-1 1-1 1a351 351 0 0 1-3 3l-1 1-1 1-1 1a178 178 0 0 0-4 4h-1 1a68 68 0 0 0 15 0l1-1a6 6 0 0 1 2 0l2-1 1-1h2l1-1 1-1h2l1-1 1-1h1l1-1h1l1-1h1l-1 1v1l-1 1a46 46 0 0 1-3 2l-1 1-4 3v1a1 1 0 0 1-1 0v1h-1a8 8 0 0 1-2 2l-1 1h-1l-1 1-1 1a6 6 0 0 1-2 1l-1 1h-1v1h-1-1a10 10 0 0 1-3 2h-1v1l-2 1h-2l-1 1h-1l-1 1-1 1h-2a3 3 0 0 0-1 0l-1 1-2 1h-1-2l-2 1h-2l-2 1h-3l-5 1h-4l1 2h1l1 1a32 32 0 0 1 2 2h1v1l1 1h1l1 1 1 1h1l1 1h1l1 1h3l1 1 3 1h2l7 1h4v1h-1l-4 1h-3a91 91 0 0 1-28-1 6 6 0 0 0-2 0 4 4 0 0 1-2 0 5 5 0 0 0-2-1 5 5 0 0 1-1-1 3 3 0 0 0-2 0 3 3 0 0 1-1 0 3 3 0 0 0-1-1 4 4 0 0 1-2-1h-1-1l-1-1a3 3 0 0 1-1-1h-1l-1-1h-2a2 2 0 0 0-1-1h-1l-1-1-1-1h-1l-1-1h-1a3 3 0 0 0-1-1 3 3 0 0 1-1-1h-1v-1h-1l-1-1-1-1h-1v-1l-5-3a5 5 0 0 0 0-1l-1-1-5-5-5-5h-1l-1-2-1-1v6l1 2v2l1 1v1l1 1v1l1 1v1h1v2l2 2 1 1v1h1v1l1 1 1 1 1 1h1v1l1 1 1 1v1l1 1h-1l-2-1-1-1h-1l-1-1a5 5 0 0 1-2-1h-1l-1-1-1-1h-1l-1-1-2-1v-1l-2-2a2 2 0 0 0-1 0l-1-1a20 20 0 0 0-2-2l-1-1a1 1 0 0 1-1 0 1 1 0 0 0 0-1 1 1 0 0 1-1 0v-1h-1v-1a25 25 0 0 1-4-5 6 6 0 0 1-2-3l-1-1a4 4 0 0 0 0-1l-1-1v-1a2 2 0 0 1-1-1 2 2 0 0 0 0-1 4 4 0 0 1-1-1 4 4 0 0 0 0-1l-1-2a3 3 0 0 0 0-1 5 5 0 0 1-1-1v-2l-1-2a8 8 0 0 0 0-2l-1-3v-3a91 91 0 0 1 1-28l1-2v-1l1-2v-1l1-1v-1l1-1v-2h1v-1l1-1v-1h1v-2h1v-1l1-1 1-1a54 54 0 0 1 20-15h1l1-1 1-1h2a5 5 0 0 0 2-1l1-1h3l2-1h4l2 1h2l1 1 2 1h2l1 1h2l1 1h2l1 1 1 1h2l2 1 2 1h3l1 1 2 1h3l2 1 2 1h3l2 1 2 1h2l3 1h2l2 1h4l4 1h15a10 10 0 0 0 3-1 6 6 0 0 1 2 0l1-1 2-1h1l5-4v-1l1-1v-1l1-2v-1a6 6 0 0 1 1-2v-3a7 7 0 0 1-1-2 8 8 0 0 0 0-2 7 7 0 0 1-1-2v-1l-1-1v-2l-1-1v-1l-1-1v-1l-1-1v-1h-1v-1a2 2 0 0 1-1-1v-1h-1v-1-1l-2-2a3 3 0 0 1-1-1l-1-1a132 132 0 0 0-9-9 5 5 0 0 1-1-1 4 4 0 0 0-1-1h-1a4 4 0 0 0-1-1l-1-1h-1v-1h-1l-1-1a7 7 0 0 1-2-1 6 6 0 0 0-1-1l-1-1h-1l-1-1a9 9 0 0 1-1-1l-2-1-1-1a3 3 0 0 1-1-1h-1l-1-1a3 3 0 0 0-1 0h-1l-1-1a3 3 0 0 1-1-1h-1a2 2 0 0 1-1 0v-1l-2-1h-1-1a3 3 0 0 0-1-1l-2-1a3 3 0 0 0-1 0h-1l-1-1a4 4 0 0 1-2-1 3 3 0 0 0-1 0 3 3 0 0 1-1 0l-2-1a8 8 0 0 1-2 0l-2-1a4 4 0 0 1-2-1h-2l-3-1h-3l-3-1h-14l-1-2-4-3-2-1h-1l-1-1-1-1h-2a5 5 0 0 1-1-1 5 5 0 0 0-2 0l-2-1h-11" fill="#BA2BD2"/>
  </g>
</svg>
