<svg width="256" height="247" xmlns="http://www.w3.org/2000/svg" preserveAspectRatio="xMidYMid">
  <defs>
    <radialGradient cx="79%" cy="38%" fx="79%" fy="38%" r="90%" id="a">
      <stop stop-color="#F80090" offset="0%"/>
      <stop stop-color="#4D008E" offset="100%"/>
    </radialGradient>
    <radialGradient cx="69%" cy="4%" fx="69%" fy="4%" r="82%" id="b">
      <stop stop-color="#57008E" offset="0%"/>
      <stop stop-color="#5C008E" offset="29%"/>
      <stop stop-color="#F80090" offset="100%"/>
    </radialGradient>
    <linearGradient x1="18%" y1="0%" x2="81%" y2="84%" id="c">
      <stop stop-color="#F70090" offset="0%"/>
      <stop stop-color="#E50090" offset="67%"/>
      <stop stop-color="#D6008F" stop-opacity="0" offset="83%"/>
      <stop stop-color="#C10090" stop-opacity="0" offset="100%"/>
    </linearGradient>
    <linearGradient x1="65%" y1="72%" x2="44%" y2="50%" id="d">
      <stop stop-color="#B2008F" stop-opacity="0" offset="0%"/>
      <stop stop-color="#F70090" stop-opacity="0" offset="40%"/>
      <stop stop-color="#F60090" offset="65%"/>
      <stop stop-color="#FF0090" offset="100%"/>
    </linearGradient>
  </defs>
  <path d="M17 157C4 87 38 20 118 11A36 36 0 0 0 85 1C73 5 73 13 59 23c-13 8-20 2-30 10s-3 26-7 30C17 70 4 77 2 86c-2 11 5 20 5 30 1 8-8 13-7 19 4 11 12 18 15 21l2 1z" fill="#FF0090"/>
  <path d="M158 61a5 5 0 1 1 0-11 5 5 0 0 1 0 11zM20 165C7 104 46 53 122 78c44 26 100 25 102 8 7-20-28-62-79-72C42-6-13 104 20 165z" fill="url(#a)"/>
  <path d="M187 172c16 1 30-2 43-13-20 22-45 33-74 37 14 11 27 17 40 14-35 10-65-1-101-37-2 10 8 25 19 35-62-27-67-109 8-130C44 41 1 113 22 173c21 45 77 80 138 72 30-3 75-24 93-73-13 12-36 22-46 23 35-18 53-47 48-87-7 17-17 30-28 39 25-39 20-59 2-82 13 37-4 78-42 106z" fill="url(#b)"/>
  <path d="M170 214c-3-1 6 3-11-1-17-5-33-9-64-40-2 10 8 25 19 35 28 20 9 10 52 25 4-7 4-13 4-19z" fill="url(#c)"/>
  <path d="M115 58l5-8 4-9-36-11c-22 6-22 16-10 30 2 1 37-2 37-2z" fill="url(#d)"/>
</svg>
