<svg xmlns="http://www.w3.org/2000/svg" width="3447" height="1000" version="1"><g fill="none" fill-rule="evenodd"><path fill="#595959" d="M1577 751V251h376v122h-258v67h226v122h-226v67h258v122h-376zm1442-500l-236 239 258 261h-170l-180-173v173h-125V251h125v153l158-153h170zm283 204c58 16 145 52 145 148 0 123-142 148-201 148-55 0-142-11-205-59l82-83c34 18 80 26 123 26 41 0 64-12 73-22 2-3 5-7 5-12s-4-16-29-25c-9-3-23-8-31-9l-78-22c-59-16-142-51-142-147 0-119 137-147 201-147 60 0 125 14 186 61l-82 83c-31-19-68-28-104-28-37 0-63 8-75 23-2 3-3 7-3 10 0 8 5 12 11 17l17 8 13 4 29 8 65 18zm-987-204l223 500h-138l-46-100h-176l-45 100h-139l223-500h98zm-87 278h76l-38-87-38 87zm-858-278c92 0 164 79 164 172 0 94-72 172-164 172h-112v156h-133V251h245zm-10 222c25 0 46-22 46-50 0-27-21-50-45-50h-103v100h102z"/><path fill="#73C07C" d="M500 1000A500 500 0 1 0 500 0a500 500 0 0 0 0 1000z"/><path fill="#FFF" d="M584 716a113 113 0 1 1-226 0s-6-76 143-238c156-168 202-187 202-187 17-11 21-7 8 9 0 0-86 92-108 227-18 108-19 187-19 189zM352 236h186c12 0 15 10 7 18L344 443c-8 8-15 6-15-5V262c0-11 12-26 23-26z"/></g></svg>