<svg xmlns="http://www.w3.org/2000/svg" fill-rule="evenodd" stroke-linejoin="round" stroke-miterlimit="1" clip-rule="evenodd" version="1" viewBox="0 0 592 154"><path fill="#004a93" d="M54 83H32l11-38 11 38zm-32 38l6-23h28l7 23h23L62 34c-2-6-4-8-10-8H18v8h2c4 0 6 1 6 5l-2 7-24 75"/><path fill="#004a93" fill-rule="nonzero" d="M115 121V33c0-4-2-7-7-7H87v8h1c4 0 6 2 6 5v82M153 121V33c0-4-2-7-7-7h-21v8h1c4 0 6 2 6 5v82"/><path fill="#004a93" d="M192 35c0-7-5-10-12-10-8 0-13 3-13 10 0 6 5 10 13 10 7 0 12-4 12-10m-1 86V57c0-4-2-7-7-7h-21v8h2c4 0 5 1 5 5v58M241 86v14c-4 4-8 7-12 7-5 0-7-2-7-7 0-6 2-9 7-10l12-4m-29-17h2a60 60 0 0 1 19-5c6 0 8 3 8 9v2a308 308 0 0 0-25 6c-9 3-13 10-13 21 0 13 5 19 17 19 5 0 10-1 13-3 4-2 5-2 9-6v2c0 4 2 7 6 7h21v-8h-1c-4 0-6-2-6-5V73c0-18-6-24-24-24a72 72 0 0 0-31 7M300 121V73c5-5 9-6 13-6 5 0 6 2 6 9v45h21V72c0-9-1-14-4-17-3-4-7-6-13-6-8 0-14 3-24 11v-3c0-5-2-7-6-7h-20v8c4 0 6 1 6 5v58"/><clipPath id="a"><path d="M0 0h592v153H0z"/></clipPath><g fill="#004a93" clip-path="url(#a)"><path fill-rule="nonzero" d="M406 107h-32l30-43V50h-45c-5 0-7 2-7 7v13h7v-1c0-4 2-6 6-6h17l-31 43v15h55"/><path d="M526 117V37c0-7-3-9-9-9h-19v9h2c4 0 5 1 5 5v75h21zm10 0h20V56c0-6-3-8-9-8h-11v69zm-42 0V48h-11c-6 0-8 2-8 8v61h19zm85-40c0 37-27 64-64 64-36 0-63-27-63-64 0-38 27-65 63-65 37 0 64 27 64 65m13 0c0-44-33-77-77-77-43 0-76 33-76 77 0 43 33 76 76 76 44 0 77-33 77-76"/></g></svg>