<?xml version="1.0" standalone="no"?>
<!DOCTYPE svg PUBLIC "-//W3C//DTD SVG 20010904//EN"
 "http://www.w3.org/TR/2001/REC-SVG-20010904/DTD/svg10.dtd">
<svg version="1.0" xmlns="http://www.w3.org/2000/svg"
 width="230.000000pt" height="59.000000pt" viewBox="0 0 230.000000 59.000000"
 preserveAspectRatio="xMidYMid meet">

<g transform="translate(0.000000,59.000000) scale(0.100000,-0.100000)"
fill="#000000" stroke="none">
<path d="M0 295 l0 -295 455 0 455 0 0 31 c0 34 16 69 31 69 6 0 3 -7 -5 -16
-9 -8 -16 -31 -16 -50 l0 -34 690 0 690 0 0 44 c0 36 -4 46 -20 51 -11 3 -24
4 -30 0 -5 -3 -30 8 -56 26 l-46 31 -28 -27 c-19 -18 -35 -25 -51 -22 l-24 4
24 2 c14 0 37 13 53 28 l27 26 43 -29 c24 -15 58 -29 76 -29 l32 -2 0 244 0
243 -1150 0 -1150 0 0 -295z m1839 0 c50 -58 39 -84 -45 -101 -51 -10 -59 -9
-76 8 -23 23 -23 25 2 82 19 41 24 46 54 46 26 0 41 -8 65 -35z m79 -60 c-3
-3 -9 2 -12 12 -6 14 -5 15 5 6 7 -7 10 -15 7 -18z m-288 -86 c33 -17 74 -33
92 -35 18 -3 44 -7 58 -11 14 -3 29 -5 33 -4 5 1 6 -3 2 -9 -4 -7 -12 -7 -24
0 -10 5 -36 10 -57 12 -21 1 -67 17 -102 35 -71 37 -106 36 -124 -3 -6 -13
-17 -24 -24 -24 -15 0 34 55 56 63 25 9 29 8 90 -24z m-230 -42 c13 -5 13 -6
-1 -6 -8 -1 -26 11 -40 27 l-24 27 25 -21 c14 -12 32 -24 40 -27z m534 29
c-11 -8 -34 -18 -50 -21 -24 -5 -23 -3 11 14 48 23 68 27 39 7z m-681 -30 c9
5 9 4 1 -5 -9 -9 -19 -7 -48 9 -20 12 -36 24 -36 27 0 3 16 -5 36 -16 19 -12
41 -18 47 -15z m757 1 c19 -9 30 -17 24 -17 -20 0 -74 31 -74 43 0 8 3 8 8 2
4 -6 23 -18 42 -28z m-865 13 c-27 -12 -43 -12 -25 0 8 5 22 9 30 9 10 0 8 -3
-5 -9z m173 -16 c-13 -13 -20 -14 -34 -5 -18 11 -17 12 2 6 15 -4 24 0 28 11
4 9 9 14 13 10 4 -3 0 -14 -9 -22z m-225 9 c3 -5 -6 -9 -20 -10 -19 -1 -22 1
-12 8 17 11 26 11 32 2z m357 -13 c-8 -5 -19 -10 -25 -10 -5 0 -3 5 5 10 8 5
20 10 25 10 6 0 3 -5 -5 -10z m-422 -7 c-10 -2 -26 -2 -35 0 -10 3 -2 5 17 5
19 0 27 -2 18 -5z"/>
</g>
</svg>
