<svg width="256" height="227" version="1" xmlns="http://www.w3.org/2000/svg" preserveAspectRatio="xMidYMid"><path d="M82 190l-45-77 45-78h89l45 78-45 77H82" fill="#CAC9C2"/><path d="M128 148a35 35 0 1 1 0-70 35 35 0 0 1 0 70" fill="#FFF"/><path d="M198 9c-2-5-9-9-15-9H73c-6 0-13 4-15 9L25 65l2 10 22 37 39-67h124l9 3-23-39" fill="#5072AA"/><path d="M27 62l-2 3 2 10 22 37 12-20-34-30" fill="#4D6796"/><path d="M76 29a7 7 0 1 1 0-14 7 7 0 0 1 0 14M186 22a6 6 0 1 1-12 0 6 6 0 0 1 12 0z" fill="#FFF"/><g><path d="M254 105l-33-57-9-3h-45l39 68-61 108-6 6h44c6 0 13-4 15-9l56-96c3-5 3-13 0-17" fill="#CC4232"/><path d="M222 50l-1-2-9-3h-45l12 20 43-15" fill="#B23F33"/><path d="M180 210a7 7 0 1 1 0-14 7 7 0 0 1 0 14M233 120a7 7 0 1 1 0-14 7 7 0 0 1 0 14" fill="#FFF"/></g><g><path d="M89 181L27 75l-2-10-23 40c-2 4-2 12 0 17l56 96c2 5 9 9 15 9h66l6-6 22-40H89" fill="#ECB02A"/><path d="M135 227h4l6-6 23-40h-24l-9 46" fill="#C79732"/><path d="M76 210a7 7 0 1 1 0-14 7 7 0 0 1 0 14M23 120a7 7 0 1 1 0-14 7 7 0 0 1 0 14" fill="#FFF"/></g></svg>