<svg xmlns="http://www.w3.org/2000/svg" version="1" width="1000" height="1356">
  <path d="M322 1049s-52 30 37 40c107 12 162 10 281-12 0 0 31 20 74 36-265 114-600-6-392-64M290 900s-58 43 30 52c115 12 206 13 363-17 0 0 21 22 55 34-321 94-678 7-448-69" fill="#0b6fb6"/>
  <path d="M563 648c65 76-17 143-17 143s166-85 90-193c-72-100-126-150 170-321 0 0-465 116-243 371" fill="#e11f21"/>
  <path d="M914 1158s38 32-42 56c-153 47-638 61-772 2-49-21 42-50 71-56 29-7 46-5 46-5-54-38-347 74-149 106 541 88 986-39 846-103M347 746s-246 59-87 80c67 9 201 7 326-3 102-9 204-27 204-27s-36 15-62 33c-250 66-734 35-594-32 117-57 213-51 213-51M789 993c254-132 137-259 55-242l-29 8s7-12 21-17c163-57 288 169-52 258 0 0 4-3 5-7" fill="#0b6fb6"/>
  <path d="M636 0s141 141-134 358c-220 173-50 273 0 386-129-116-223-218-160-313C435 291 693 224 636 0" fill="#e11f21"/>
  <path d="M372 1352c244 15 619-9 628-125 0 0-17 44-202 79-208 39-465 35-618 10 0 0 31 25 192 36" fill="#0b6fb6"/>
</svg>
