<svg xmlns="http://www.w3.org/2000/svg" viewBox="0 0 264.6 255.6" height="966" width="1000">
  <path d="M153.3 4.2a16 16 0 0 0-5 1c3.3 2.1 5.1 5 6 8.3 0 .5.2.8.3 1.3l.1 1.1c.3 5.7-1.5 6.4-2.7 9.8a13.8 13.8 0 0 0 .9 12.7c.2.5.4 1 .8 1.5-2.5-16.4 11.1-18.8 13.7-24 .2-4.4-3.5-7.4-6.4-9.5a14.3 14.3 0 0 0-7.7-2.2zM174 8c-.3 1.5 0 1.1-.1 1.9l-.2 1.7-.4 1.5-.5 1.6-.7 1.5-.6.7-.4.6c-.3.5-.6 1-1 1.3l-1 1.2-1.3 1c-1.4 1.1-3 1.9-4.3 2.9-.5.3-1 .5-1.3 1-.5.2-.9.6-1.3 1l-1.1 1.2-1 1.3-.9 1.3-.7 1.5-.5 1.5-.5 1.6-.1.9-.1.7-.1 1.7v1.1l.3 1.6c0 .6.2 1 .3 1.6l.5 1.5.5 1-15-5.8-7.4-2-4-1c-4-.7-7.9-1.3-11.8-1.7h-.4a115.5 115.5 0 0 0-20-.3c-4 .3-7.9.8-11.8 1.4l-3 .6c-2 .3-3.9.8-5.7 1.3l-3 .7-2.7 1.3-2.2 1h-.3l-1.8 1a24.6 24.6 0 0 0-2.5 1.2l-1.3.6-.5.4a32.4 32.4 0 0 0-3.3 1.9l-1.3.9-.1.1-1.3 1H58l-1 .8-.4.3-1 .8c0 .2-.1.2-.2.3l-1.1 1-.2.2-1.1 1.1-.2.1-1 1c0 .2-.3.3-.4.5L50.2 54l-.2.4-1.5 1.5-.2.2a38.1 38.1 0 0 1-3.3 3.2 36.7 36.7 0 0 1-7.5 5.3 46.5 46.5 0 0 1-8.3 3.5c-2.7.5-5.5 1.6-7.9 1.8l-1.6.2-1.6.4-1.6.6-1.5.7-1.4.9c-.5.3-1 .7-1.3 1.1-.5.3-1 .8-1.3 1.2l-1.1 1.3-1 1.4-.9 1.5-.7 1.7-.6 1.7-.3 1.5v.2L6 86.2v1.3a6.8 6.8 0 0 0 .7 3.2l.7 1.2.8 1.2 1.1 1 1.3 1c1.5 1.4 1.9 1.9 3.9 2.9l1 .5h.2v.4a13.3 13.3 0 0 0 1 3.1l.5 1.2c0 .1 0 .2.2.3l.7 1.4 1 1.4 1 1.2 1.3 1.1h.1l1.2 1 1.4.8 1.5.7 1.3.5.3.1.8.2c-.2 3.5-.2 6.8.3 8 .6 1.2 3.4-2.7 6.2-7.2a40 40 0 0 0 0 11.2c.7 1.6 4.6-3.4 8-9a74.7 74.7 0 0 1 92 65.8c-.8-7-9.4-10.8-13.4-9.9-2 4.8-5.2 11-10.5 14.8.4-4.3.3-8.7-.7-13a41.8 41.8 0 0 1-8 16.3 18 18 0 0 1-15.5-7c-.2-.1-.3-.5-.5-.8l-.5-1.3-.4-1.4V176c0-.5.1-.9.3-1.4 0-.4.2-.9.4-1.3l.8-1.4c1-3 1-5.6-1-7a7.4 7.4 0 0 0-1.1-.7l-.9-.3-.5-.2-1.4-.3-1.3-.2-1.4-.1h-1l-1.4.2-1.4.3-1.3.4-1.3.6-1.3.7c-15 9.8-6 32.8 4.2 39.4-3.8.8-7.8 1.6-8.9 2.4l-.1.2a60.9 60.9 0 0 0 8.7 4.3c4.2 1.4 8.5 2.6 10.5 3.1A62.5 62.5 0 0 0 102 216c28.6-2 52-23.8 56.3-52.4l.4 1.6c.2 1.2.5 2.4.6 3.7l.2 1.7v.3l.2 1.6.1 2.2v5.4l-.1.8v1.5c-.2.2-.2.4-.2.5l-.2 1.5v.6c0 .7-.2 1.2-.3 1.9v.1l-.4 1.8v.2l-.3 1.8-.1.2a14 14 0 0 1-.5 1.8v.2l-.5 1.8v.1l-.6 2-.7 1.8-.7 1.9-.8 1.9-1 1.8-.1.4s0 .2-.2.2a61.2 61.2 0 0 1-18.1 21.7l-1.6 1.1c0 .2-.3.2-.4.4l-1.4 1 .2.3 2.7-.4h.1c1.7-.2 3.4-.6 5-.9l1.5-.3.9-.2 1.3-.3 1.2-.3a122.5 122.5 0 0 0 18.7-6.2 103.5 103.5 0 0 1-40 32.8 107 107 0 0 0 22-3.8 103.2 103.2 0 0 0 61-48.8 103.1 103.1 0 0 1-17.4 41.5 101.7 101.7 0 0 0 17.3-14.3 102.4 102.4 0 0 0 27.2-55 102.9 102.9 0 0 1 1.9 31.2c46.6-65 3.8-132.5-14-150.3l-.2-.3v.1l-.1-.1c0 .7 0 1.5-.2 2.3l-.6 4.3-1.1 4.3a53.8 53.8 0 0 1-1.6 4.1 55.5 55.5 0 0 1-1.9 4 49.4 49.4 0 0 1-5 7.1l-3 3.3-1.9 1.6-1.5 1.3c-1.1.9-2.3 1.7-3.6 2.5a44.8 44.8 0 0 1-3.8 2.2l-4 1.8a45.5 45.5 0 0 1-8.6 2.3c-1.5.3-3 .4-4.4.5a49.7 49.7 0 0 1-3 .2c-1.6 0-3-.2-4.5-.3a32.7 32.7 0 0 1-4.4-.6 32.7 32.7 0 0 1-4.3-1.1l4.2-.5a46.8 46.8 0 0 0 8.5-2.4 38.8 38.8 0 0 0 4-1.8 45.2 45.2 0 0 0 4-2.1l3.6-2.6 3.3-2.9 3-3.2a63.9 63.9 0 0 0 2.7-3.5l.4-.6 1.9-3.1a44.5 44.5 0 0 0 3.5-8c.4-1.4.8-2.9 1-4.3.3-1.5.6-2.9.7-4.3a51 51 0 0 0 .2-7.5l-.6-4.3c-.2-1.5-.5-3-1-4.4-.4-1.3-.8-2.7-1.4-4.1a44.6 44.6 0 0 0-1.8-4l-2.2-3.8a71.3 71.3 0 0 0-2.5-3.6l-3-3.3-1.7-1.6a115 115 0 0 0-10.3-7A25.2 25.2 0 0 0 174 8z" fill="#e0234e" fill-rule="evenodd" stroke-width=".8"/>
</svg>
