<svg xmlns="http://www.w3.org/2000/svg" xmlns:xlink="http://www.w3.org/1999/xlink" width="110" height="110" version="1">
  <defs>
    <linearGradient id="a">
      <stop offset="0" stop-color="#ffe052"/>
      <stop offset="1" stop-color="#ffc331"/>
    </linearGradient>
    <linearGradient gradientUnits="userSpaceOnUse" y2="168" x2="148" y1="112" x1="89" id="d" xlink:href="#a"/>
    <linearGradient id="b">
      <stop offset="0" stop-color="#387eb8"/>
      <stop offset="1" stop-color="#366994"/>
    </linearGradient>
    <linearGradient gradientUnits="userSpaceOnUse" y2="132" x2="110" y1="77" x1="56" id="c" xlink:href="#b"/>
  </defs>
  <g color="#000">
    <path style="marker:none" d="M100 67c-28 0-27 13-27 13l1 12h26v4H63s-18-2-18 26c0 29 16 28 16 28h9v-14s-1-15 15-15h27s15 0 15-15V82s2-15-27-15zm-15 9a5 5 0 1 1 0 10 5 5 0 0 1 0-10z" fill="url(#c)" overflow="visible" transform="translate(-45 -67)"/>
    <path d="M101 177c28 0 26-12 26-12v-12h-27v-4h37s18 2 18-26c0-29-15-28-15-28h-10v13s1 16-15 16H88s-14 0-14 14v25s-3 14 27 14zm14-8a5 5 0 1 1 0-10 5 5 0 0 1 0 10z" style="marker:none" fill="url(#d)" overflow="visible" transform="translate(-45 -67)"/>
  </g>
</svg>
