<svg width="256" height="256" xmlns="http://www.w3.org/2000/svg" preserveAspectRatio="xMidYMid">
  <path fill="#007ACC" d="M0 128v128h256V0H0z"/>
  <path d="M57 129v10h33v95h23v-95h34v-10l-1-11H57v11zm150-11a32 32 0 0 1 16 9l6 9-18 12-2-3c-4-5-7-7-12-7-8-1-13 3-13 10l1 5c2 3 5 6 15 10 18 8 26 13 31 20 5 9 6 22 3 32-4 10-14 17-29 20h-19c-10-2-20-7-26-14l-7-10 3-1 9-6 7-4 2 2c2 3 7 8 10 9 8 5 19 4 25-1 2-2 3-4 3-7s0-5-2-7c-2-3-6-5-18-10-13-6-18-9-24-15-3-3-5-8-7-13v-16c3-13 12-22 26-24h20z" fill="#FFF"/>
</svg>
