<?xml version="1.0" encoding="utf-8"?>
<!-- Generator: Adobe Illustrator 21.0.2, SVG Export Plug-In . SVG Version: 6.00 Build 0)  -->
<svg version="1.1" id="Layer_1" xmlns="http://www.w3.org/2000/svg" xmlns:xlink="http://www.w3.org/1999/xlink" x="0px" y="0px"
	 viewBox="0 0 722.3 186.7" enable-background="new 0 0 722.3 186.7" xml:space="preserve">
<g>
	
		<radialGradient id="SVGID_1_" cx="154.8809" cy="510.0701" r="32.1472" gradientTransform="matrix(1.0185 0 0 1 401.8613 -403.1235)" gradientUnits="userSpaceOnUse">
		<stop  offset="0" style="stop-color:#FFDFBE"/>
		<stop  offset="0.2556" style="stop-color:#FDCD99"/>
		<stop  offset="0.8218" style="stop-color:#F8A13C"/>
		<stop  offset="1" style="stop-color:#F6921E"/>
	</radialGradient>
	<path fill="url(#SVGID_1_)" d="M593.2,106.9c0,17.3-15.1,31.3-33.6,31.3c-18.6,0-33.6-14-33.6-31.3c0-17.3,15.1-31.3,33.6-31.3
		C578.2,75.7,593.2,89.7,593.2,106.9L593.2,106.9z"/>
	
		<radialGradient id="SVGID_2_" cx="164.3662" cy="516.2761" r="34.1628" gradientTransform="matrix(1 0 0 1 406.9697 -396.4365)" gradientUnits="userSpaceOnUse">
		<stop  offset="0" style="stop-color:#6CBF70"/>
		<stop  offset="0.2156" style="stop-color:#83C55D"/>
		<stop  offset="0.4683" style="stop-color:#96C94E"/>
		<stop  offset="0.7274" style="stop-color:#A1CC44"/>
		<stop  offset="1" style="stop-color:#A5CD41"/>
	</radialGradient>
	<path fill="url(#SVGID_2_)" d="M603.1,87.1c0,0,6,19.1-0.6,27.4c-8,10.1-18,9.8-18,9.8s-21-1.1-31.1,2.9
		c-14.8,5.8-17.5,12.3-17.5,12.3s11.8,17.9,36.2,11.9c24.5-6,32.6-32.1,32.6-32.1s-8.4,16.8-27.1,20.7c0,0-0.6,1.7-3.3,4.1
		c-3.6,3.2-9.1,3.8-9.1,3.8s6.4-2.3,8.1-4.1c1.6-1.8,1.2-3.5,1.2-3.5s-8.8,1.3-19.1,1.3c-5.6,0-14-1.8-14-1.8s24.2,1.9,35.6-1.2
		c21.2-5.7,26.7-15.8,27.9-20.2C610.2,101.9,603.1,87.1,603.1,87.1L603.1,87.1z"/>
	
		<radialGradient id="SVGID_3_" cx="145.4302" cy="510.9102" r="33.1198" gradientTransform="matrix(1 0 0 1 385.8115 -402.1758)" gradientUnits="userSpaceOnUse">
		<stop  offset="0" style="stop-color:#6CBF70"/>
		<stop  offset="0.2156" style="stop-color:#83C55D"/>
		<stop  offset="0.4683" style="stop-color:#96C94E"/>
		<stop  offset="0.7274" style="stop-color:#A1CC44"/>
		<stop  offset="1" style="stop-color:#A5CD41"/>
	</radialGradient>
	<path fill="url(#SVGID_3_)" d="M552.5,150.5c0,0-19.8-4.5-23.8-14.3c-4.9-11.9,0.5-20.2,0.5-20.2s11.5-17.2,13.1-27.8
		c2.4-15.4-2-21.1-2-21.1s-21.7,1-28.7,24.8c-7,23.8,10.6,42.2,10.6,42.2s-9.4-14.1-3.3-31.8c0,0-1.2-1.3-2-4.8
		c-1-4.7,1.2-9.6,1.2-9.6s-1.2,6.6-0.5,8.9c0.7,2.3,2.5,2.8,2.5,2.8s3.3-8.1,8.5-16.9c2.8-4.7,8.6-11,8.6-11s-13.8,19.5-16.9,30.8
		c-5.7,20.8,0.5,30.6,3.7,33.8C535.9,149.1,552.5,150.5,552.5,150.5L552.5,150.5z"/>
	
		<radialGradient id="SVGID_4_" cx="160.2468" cy="497.799" r="33.9906" gradientTransform="matrix(1 0 0 1 402.3301 -416.9585)" gradientUnits="userSpaceOnUse">
		<stop  offset="0" style="stop-color:#6CBF70"/>
		<stop  offset="0.2156" style="stop-color:#83C55D"/>
		<stop  offset="0.4683" style="stop-color:#96C94E"/>
		<stop  offset="0.7274" style="stop-color:#A1CC44"/>
		<stop  offset="1" style="stop-color:#A5CD41"/>
	</radialGradient>
	<path fill="url(#SVGID_4_)" d="M521,76.6c0,0,13.3-15.1,24-14c13,1.3,18,9.8,18,9.8s10.2,18,18.9,24.4c12.8,9.3,19.9,8.1,19.9,8.1
		s9.2-19.3-8.9-36.5C574.8,51.2,549,58.2,549,58.2s18-1.8,31.1,11.7c0,0,1.7-0.4,5.3,0.6c4.7,1.3,8.1,5.6,8.1,5.6s-5.4-4.1-7.8-4.5
		c-2.4-0.4-3.7,0.9-3.7,0.9s5.8,6.6,11.2,15.2c3,4.7,5.9,12.6,5.9,12.6S588,79,579.3,71c-16.1-14.6-27.8-13.9-32.2-12.5
		C530,62.8,521,76.6,521,76.6L521,76.6z"/>
	<path fill="#A5CD41" d="M164.6,130.4l18.9-1.4c1.1,4.7,4,8.2,8.8,10.7c4.8,2.5,13.1,3.7,21.7,3.7c8.7,0,13.6-1.1,17.8-3.3
		c4.2-2.2,6.3-4.8,6.3-7.7c0-2.6-1.8-4.7-5.4-6.2c-2.5-1-7.3-2.4-17.7-4c-14-2.2-25.2-4-30.6-5.6c-5.4-1.6-9.5-3.8-12.3-6.5
		c-2.8-2.8-4.2-5.9-4.2-9.2c0-3.1,1.1-5.9,3.4-8.5c2.3-2.6,5.4-4.8,9.4-6.5c3-1.3,7-2.5,12.1-3.4c5.1-0.9,12.2-1.4,18-1.4
		c8.8,0,14.9,0.8,21.6,2.3c6.7,1.6,11.6,3.7,14.7,6.3c3.2,2.7,5.4,6.2,6.6,10.7l-18.5,1.4c-0.8-3.5-1.7-6.3-5.8-8.3
		c-4.1-2-14-3-17.2-3c-8.7,0-16.6,0.9-20.3,2.7c-3.7,1.8-5.6,3.9-5.6,6.2c0,1.5,0.8,2.9,2.3,4.1c1.5,1.3,4,2.3,7.3,3.1
		c1.9,0.4,9.1,1.4,18.4,3c15,2.5,22.9,4.5,26.5,5.4c5.3,1.4,9.4,3.4,12.4,6.1c3,2.7,4.5,6,4.5,10c0,3.9-1.9,7.5-5.5,11
		c-3.7,3.4-9,6.1-16,8c-7,1.9-13.3,2.8-22.1,2.8c-14.6,0-27.3-1.9-34.9-5.7C171.6,143.4,166.7,137.8,164.6,130.4L164.6,130.4z"/>
	<path fill="#A5CD41" d="M267.2,179.2V83.6h17.2v9.2c4.1-3.5,8.7-6.2,13.9-7.9c5.2-1.8,11.4-2.6,18.8-2.6c9.6,0,18.1,1.5,25.5,4.5
		c7.3,3,12.9,7.3,16.7,12.8c3.7,5.5,5.6,11.5,5.6,18.1c0,7-2.1,13.4-6.2,19c-4.1,5.6-10.2,9.9-18.1,13c-7.9,3-16.2,4.5-24.9,4.5
		c-6.4,0-12.1-0.8-17.1-2.4c-5.1-1.6-9.2-3.7-12.5-6.2v33.8H267.2L267.2,179.2z M284,118.6c0,8.8,2.9,15.4,8.8,19.6
		c5.9,4.2,13,6.3,21.4,6.3c8.5,0,15.8-2.2,21.9-6.6c6.1-4.4,9.1-11.2,9.1-20.3c0-8.8-3-15.3-8.9-19.7c-5.9-4.4-13-6.5-21.2-6.5
		c-8.2,0-15.4,2.3-21.6,7C287.1,103,284,109.7,284,118.6L284,118.6z"/>
	<polygon fill="#A5CD41" points="388,152.6 388,83.6 406.8,83.6 406.8,152.6 388,152.6 	"/>
	<path fill="#A5CD41" d="M435.1,152.6v-69h16.8v10.6c4.3-4.9,8.3-8.1,12-9.7c3.7-1.6,7.7-2.3,12.1-2.3c6.3,0,18.7-1.1,21.8-3.6
		l-9.1,18c-4.6-1.5-9.1-2.2-13.7-2.2c-4.1,0-7.8,0.8-11,2.3c-3.2,1.5-5.6,3.7-7,6.4c-2.1,4.1-3.2,8.7-3.2,13.6v36H435.1L435.1,152.6
		z"/>
	<path fill="#00B8F1" d="M312.1,180.2h3.9c-0.4-0.6-0.8-1.3-0.9-1.9c-0.2-0.7-0.2-2.3-0.2-4.8v-3.6c0-1.2-0.1-2-0.2-2.5
		c-0.2-0.7-0.6-1.4-1.2-1.9c-0.5-0.5-1.4-0.9-2.6-1.2c-1.2-0.3-2.7-0.5-4.5-0.5c-1.9,0-3.5,0.2-5,0.6c-1.4,0.4-2.5,0.9-3.3,1.6
		c-0.8,0.7-1.3,1.6-1.6,2.8l3.6,0.4c0.4-1.2,1-2,1.8-2.4c0.8-0.5,2.1-0.7,3.9-0.7c1.9,0,3.3,0.3,4.2,0.9c0.7,0.5,1.1,1.2,1.1,2.3
		c0,0.1,0,0.3,0,0.7c-1.4,0.4-3.6,0.7-6.6,0.9c-1.5,0.1-2.6,0.3-3.3,0.4c-1,0.2-1.9,0.5-2.7,0.9c-0.8,0.4-1.4,0.9-1.9,1.6
		c-0.5,0.7-0.7,1.4-0.7,2.2c0,1.3,0.6,2.5,1.9,3.3c1.3,0.9,3.1,1.3,5.5,1.3c1.5,0,2.8-0.2,4.1-0.5c1.3-0.4,2.6-1,3.9-1.8
		C311.5,179,311.7,179.6,312.1,180.2L312.1,180.2z M311.1,173.1c0,1.2-0.2,2.1-0.6,2.7c-0.5,0.8-1.3,1.4-2.5,1.9
		c-1.1,0.5-2.4,0.7-3.8,0.7c-1.4,0-2.5-0.2-3.3-0.7c-0.8-0.5-1.1-1.1-1.1-1.8c0-0.5,0.2-0.9,0.5-1.3c0.3-0.4,0.8-0.7,1.5-0.9
		c0.6-0.2,1.7-0.4,3.2-0.5c2.7-0.3,4.7-0.6,6-1L311.1,173.1L311.1,173.1z M324.2,180.2v-8.4c0-1.2,0.2-2.2,0.6-3.2
		c0.3-0.6,0.7-1.1,1.4-1.5c0.6-0.4,1.4-0.5,2.2-0.5c0.9,0,1.8,0.2,2.7,0.6l1.3-2.5c-1.3-0.6-2.5-0.9-3.8-0.9c-0.9,0-1.6,0.2-2.4,0.5
		c-0.7,0.4-1.5,1.1-2.3,2.3v-2.5h-3.3v16.1H324.2L324.2,180.2z M340.9,177.9c-0.5,0-1-0.1-1.3-0.2c-0.3-0.1-0.5-0.3-0.6-0.5
		c-0.1-0.2-0.2-0.7-0.2-1.5v-9.4h3.7v-2.1h-3.7v-5.6l-3.7,1.6v4h-2.7v2.1h2.7v9.3c0,1.6,0.1,2.7,0.4,3.2c0.3,0.5,0.8,0.9,1.6,1.2
		c0.7,0.3,1.8,0.5,3.1,0.5c0.8,0,1.7-0.1,2.8-0.2l-0.5-2.4C341.9,177.9,341.3,177.9,340.9,177.9L340.9,177.9z M349.9,180.2v-8.8
		c0-2.1,0.6-3.5,1.7-4.2c1.1-0.7,2.5-1.1,4.1-1.1c1,0,1.8,0.2,2.6,0.5c0.7,0.3,1.2,0.8,1.5,1.3c0.3,0.6,0.4,1.4,0.4,2.5v9.8h3.7
		v-9.9c0-1.3-0.1-2.1-0.2-2.7c-0.2-0.8-0.6-1.5-1.1-2c-0.5-0.6-1.4-1-2.5-1.4c-1.1-0.3-2.3-0.5-3.6-0.5c-3,0-5.3,0.9-6.9,2.6v-2.3
		h-3.4v16.1H349.9L349.9,180.2z M382.2,177.5c-1,0.5-2.1,0.8-3.5,0.8c-1.8,0-3.3-0.5-4.6-1.4c-1.2-0.9-1.9-2.3-2-4.1h16.3
		c0-0.3,0-0.6,0-0.7c0-2.7-0.9-4.7-2.8-6.2c-1.8-1.5-4.2-2.2-7.1-2.2c-3,0-5.4,0.8-7.3,2.2c-1.9,1.5-2.8,3.6-2.8,6.3
		c0,2.6,0.9,4.7,2.8,6.1c1.9,1.4,4.4,2.2,7.6,2.2c2.5,0,4.6-0.5,6.2-1.4c1.6-0.9,2.7-2.2,3.3-3.8l-3.8-0.4
		C383.9,176.1,383.2,177,382.2,177.5L382.2,177.5z M374.2,167.3c1.2-0.8,2.6-1.2,4.3-1.2c1.9,0,3.4,0.5,4.6,1.6
		c0.8,0.7,1.2,1.7,1.4,3h-12.2C372.4,169.2,373.1,168.1,374.2,167.3L374.2,167.3z M396.6,180.2v-8.4c0-1.2,0.2-2.2,0.6-3.2
		c0.3-0.6,0.7-1.1,1.4-1.5c0.6-0.4,1.4-0.5,2.2-0.5c0.9,0,1.8,0.2,2.7,0.6l1.3-2.5c-1.3-0.6-2.5-0.9-3.8-0.9c-0.9,0-1.6,0.2-2.4,0.5
		c-0.7,0.4-1.5,1.1-2.3,2.3v-2.5h-3.3v16.1H396.6L396.6,180.2z M423.2,180.2v-14h4.2v-2.1h-4.2v-1.5c0-1,0.2-1.6,0.7-2
		c0.5-0.4,1.3-0.5,2.4-0.5c0.7,0,1.4,0.1,2.2,0.2l0.6-2.4c-1.3-0.2-2.4-0.3-3.4-0.3c-1.6,0-2.9,0.2-3.8,0.7c-0.9,0.4-1.5,1-1.9,1.7
		c-0.3,0.5-0.4,1.3-0.4,2.4v1.7h-3.3v2.1h3.3v14H423.2L423.2,180.2z M431.7,178.4c1.9,1.4,4.3,2.2,7.4,2.2c1.9,0,3.7-0.3,5.3-1
		c1.6-0.7,2.8-1.6,3.7-2.8c0.8-1.2,1.3-2.8,1.3-4.9c0-2.6-1-4.6-2.9-6c-1.9-1.4-4.3-2.2-7.3-2.2c-2.7,0-5,0.6-6.8,1.8
		c-2.2,1.4-3.4,3.6-3.4,6.6C428.9,174.9,429.9,177,431.7,178.4L431.7,178.4z M434.5,167.5c1.2-1,2.8-1.5,4.6-1.5
		c1.8,0,3.3,0.5,4.6,1.5c1.2,1,1.8,2.5,1.8,4.5c0,2.1-0.6,3.7-1.8,4.7c-1.2,1-2.7,1.5-4.6,1.5c-1.9,0-3.4-0.5-4.6-1.5
		c-1.2-1-1.8-2.6-1.8-4.6C432.7,170.1,433.3,168.6,434.5,167.5L434.5,167.5z M457.3,180.2v-8.4c0-1.2,0.2-2.2,0.6-3.2
		c0.3-0.6,0.7-1.1,1.4-1.5c0.6-0.4,1.4-0.5,2.2-0.5c0.9,0,1.8,0.2,2.7,0.6l1.3-2.5c-1.3-0.6-2.5-0.9-3.8-0.9c-0.9,0-1.6,0.2-2.4,0.5
		c-0.7,0.4-1.5,1.1-2.3,2.3v-2.5h-3.3v16.1H457.3L457.3,180.2z M481.6,186.7c1.2,0,2.2-0.2,3-0.6c0.9-0.4,1.6-1.1,2.3-2
		c0.5-0.7,1.2-1.9,2.1-3.6l8.2-16.4h-3.7l-4.7,9.4c-0.6,1.2-1.1,2.4-1.5,3.6c-0.5-1.3-1-2.5-1.6-3.7l-4.5-9.3h-4l8.3,16.1
		c-0.2,0.3-0.3,0.5-0.3,0.7c-0.5,1.1-0.9,1.8-1.1,2c-0.3,0.4-0.7,0.6-1.2,0.8c-0.5,0.2-1.2,0.3-2,0.3c-0.6,0-1.3-0.1-2.1-0.2
		l0.4,2.6C480.1,186.6,480.9,186.7,481.6,186.7L481.6,186.7z M501.8,178.4c1.9,1.4,4.3,2.2,7.4,2.2c1.9,0,3.7-0.3,5.3-1
		c1.6-0.7,2.8-1.6,3.7-2.8c0.8-1.2,1.3-2.8,1.3-4.9c0-2.6-1-4.6-2.9-6c-1.9-1.4-4.3-2.2-7.3-2.2c-2.7,0-5,0.6-6.8,1.8
		c-2.2,1.4-3.4,3.6-3.4,6.6C499,174.9,499.9,177,501.8,178.4L501.8,178.4z M504.6,167.5c1.2-1,2.8-1.5,4.6-1.5
		c1.8,0,3.3,0.5,4.6,1.5c1.2,1,1.8,2.5,1.8,4.5c0,2.1-0.6,3.7-1.8,4.7c-1.2,1-2.7,1.5-4.6,1.5c-1.9,0-3.4-0.5-4.6-1.5
		c-1.2-1-1.8-2.6-1.8-4.6C502.8,170.1,503.4,168.6,504.6,167.5L504.6,167.5z M541.3,180.2v-16.1h-3.7v8.6c0,1.4-0.2,2.4-0.6,3.2
		c-0.4,0.7-1.1,1.3-2.1,1.7c-1,0.4-2,0.6-3.1,0.6c-1.1,0-2-0.2-2.8-0.6c-0.8-0.4-1.2-1-1.5-1.7c-0.2-0.5-0.2-1.5-0.2-2.9v-9h-3.7v10
		c0,1.2,0.1,2,0.2,2.5c0.2,0.8,0.6,1.5,1.1,2c0.5,0.5,1.4,1,2.5,1.4c1.1,0.4,2.3,0.5,3.6,0.5c2.9,0,5.2-0.9,6.9-2.7v2.4H541.3
		L541.3,180.2z M550.8,180.2v-8.4c0-1.2,0.2-2.2,0.6-3.2c0.3-0.6,0.7-1.1,1.4-1.5c0.6-0.4,1.4-0.5,2.2-0.5c0.9,0,1.8,0.2,2.7,0.6
		l1.3-2.5c-1.3-0.6-2.5-0.9-3.8-0.9c-0.9,0-1.6,0.2-2.4,0.5c-0.7,0.4-1.5,1.1-2.3,2.3v-2.5h-3.4v16.1H550.8L550.8,180.2z
		 M574.2,179.3c1.5,0.9,3.7,1.3,6.5,1.3c1.7,0,3.2-0.2,4.6-0.7c1.4-0.4,2.4-1.1,3.1-1.9c0.7-0.8,1.1-1.7,1.1-2.6
		c0-0.9-0.3-1.7-0.9-2.3c-0.6-0.6-1.4-1.1-2.4-1.4c-1-0.3-2.9-0.8-5.5-1.3c-1.8-0.4-2.9-0.6-3.3-0.7c-0.6-0.2-1.1-0.4-1.4-0.7
		c-0.3-0.3-0.5-0.6-0.5-1c0-0.6,0.4-1,1.1-1.4c0.7-0.4,1.9-0.6,3.6-0.6c1.4,0,2.6,0.2,3.3,0.7c0.8,0.5,1.3,1.1,1.4,1.9l3.6-0.4
		c-0.2-1-0.7-1.9-1.3-2.5c-0.6-0.6-1.6-1.1-2.9-1.5c-1.3-0.4-2.8-0.5-4.5-0.5c-1.1,0-2.2,0.1-3.2,0.3c-1,0.2-1.8,0.5-2.4,0.8
		c-0.8,0.4-1.4,0.9-1.8,1.5c-0.4,0.6-0.7,1.3-0.7,2c0,0.8,0.3,1.5,0.8,2.2c0.5,0.7,1.3,1.2,2.4,1.5c1.1,0.4,2.9,0.8,5.6,1.3
		c2,0.4,3.3,0.7,3.8,0.9c0.7,0.4,1.1,0.8,1.1,1.5c0,0.7-0.4,1.3-1.2,1.8c-0.8,0.5-2.1,0.8-3.8,0.8c-1.7,0-3-0.3-3.9-0.9
		c-0.9-0.6-1.5-1.4-1.7-2.5l-3.7,0.4C571.7,177.1,572.7,178.4,574.2,179.3L574.2,179.3z M611.4,180.2v-16.1h-3.7v8.6
		c0,1.4-0.2,2.4-0.6,3.2c-0.4,0.7-1.1,1.3-2.1,1.7c-1,0.4-2,0.6-3.1,0.6c-1.1,0-2-0.2-2.8-0.6c-0.7-0.4-1.2-1-1.5-1.7
		c-0.2-0.5-0.2-1.5-0.2-2.9v-9h-3.7v10c0,1.2,0.1,2,0.2,2.5c0.2,0.8,0.6,1.5,1.1,2c0.5,0.5,1.4,1,2.5,1.4c1.1,0.4,2.3,0.5,3.6,0.5
		c2.9,0,5.2-0.9,6.9-2.7v2.4H611.4L611.4,180.2z M629.6,177.3c-1,0.7-2.2,1-3.6,1c-1.8,0-3.3-0.5-4.4-1.5c-1.1-1-1.7-2.5-1.7-4.7
		c0-2.1,0.6-3.7,1.7-4.7c1.2-1,2.7-1.5,4.5-1.5c1.2,0,2.3,0.3,3.2,0.8c0.9,0.5,1.5,1.4,1.8,2.4l3.6-0.4c-0.4-1.6-1.4-2.9-2.9-3.8
		c-1.5-0.9-3.4-1.3-5.8-1.3c-1.9,0-3.6,0.3-5.2,1c-1.6,0.7-2.8,1.6-3.6,2.9c-0.8,1.3-1.2,2.8-1.2,4.6c0,2.7,0.9,4.8,2.7,6.2
		c1.8,1.4,4.2,2.2,7.2,2.2c2.4,0,4.4-0.5,6-1.6c1.6-1,2.6-2.5,3-4.3l-3.6-0.4C631.2,175.7,630.6,176.7,629.6,177.3L629.6,177.3z
		 M650.6,177.3c-1,0.7-2.2,1-3.6,1c-1.8,0-3.3-0.5-4.4-1.5c-1.1-1-1.7-2.5-1.7-4.7c0-2.1,0.6-3.7,1.7-4.7c1.2-1,2.7-1.5,4.5-1.5
		c1.2,0,2.3,0.3,3.2,0.8c0.9,0.5,1.5,1.4,1.8,2.4l3.6-0.4c-0.4-1.6-1.4-2.9-2.9-3.8c-1.5-0.9-3.4-1.3-5.8-1.3c-1.9,0-3.6,0.3-5.2,1
		c-1.6,0.7-2.8,1.6-3.6,2.9c-0.8,1.3-1.2,2.8-1.2,4.6c0,2.7,0.9,4.8,2.7,6.2c1.8,1.4,4.2,2.2,7.2,2.2c2.4,0,4.4-0.5,6-1.6
		c1.6-1,2.6-2.5,3-4.3l-3.6-0.4C652.2,175.7,651.6,176.7,650.6,177.3L650.6,177.3z M671.8,177.5c-1,0.5-2.1,0.8-3.5,0.8
		c-1.8,0-3.3-0.5-4.6-1.4c-1.2-0.9-1.9-2.3-2-4.1H678c0-0.3,0-0.6,0-0.7c0-2.7-0.9-4.7-2.8-6.2c-1.8-1.5-4.2-2.2-7.1-2.2
		c-3,0-5.4,0.8-7.3,2.2c-1.9,1.5-2.8,3.6-2.8,6.3c0,2.6,0.9,4.7,2.8,6.1c1.9,1.4,4.4,2.2,7.6,2.2c2.5,0,4.6-0.5,6.2-1.4
		c1.6-0.9,2.7-2.2,3.3-3.8l-3.8-0.4C673.6,176.1,672.8,177,671.8,177.5L671.8,177.5z M663.9,167.3c1.2-0.8,2.6-1.2,4.3-1.2
		c1.9,0,3.4,0.5,4.6,1.6c0.8,0.7,1.2,1.7,1.4,3H662C662.1,169.2,662.7,168.1,663.9,167.3L663.9,167.3z M684,179.3
		c1.5,0.9,3.7,1.3,6.5,1.3c1.7,0,3.2-0.2,4.6-0.7c1.4-0.4,2.4-1.1,3.1-1.9c0.7-0.8,1.1-1.7,1.1-2.6c0-0.9-0.3-1.7-0.9-2.3
		c-0.6-0.6-1.4-1.1-2.4-1.4c-1-0.3-2.9-0.8-5.5-1.3c-1.8-0.4-2.9-0.6-3.3-0.7c-0.6-0.2-1.1-0.4-1.4-0.7c-0.3-0.3-0.5-0.6-0.5-1
		c0-0.6,0.4-1,1.1-1.4c0.7-0.4,1.9-0.6,3.6-0.6c1.4,0,2.6,0.2,3.3,0.7c0.8,0.5,1.3,1.1,1.4,1.9l3.6-0.4c-0.2-1-0.7-1.9-1.3-2.5
		c-0.6-0.6-1.6-1.1-2.9-1.5c-1.3-0.4-2.8-0.5-4.5-0.5c-1.1,0-2.2,0.1-3.2,0.3c-1,0.2-1.8,0.5-2.4,0.8c-0.8,0.4-1.4,0.9-1.8,1.5
		c-0.4,0.6-0.7,1.3-0.7,2c0,0.8,0.3,1.5,0.8,2.2c0.5,0.7,1.3,1.2,2.4,1.5c1.1,0.4,2.9,0.8,5.6,1.3c2,0.4,3.3,0.7,3.8,0.9
		c0.7,0.4,1.1,0.8,1.1,1.5c0,0.7-0.4,1.3-1.2,1.8c-0.8,0.5-2.1,0.8-3.8,0.8c-1.7,0-3-0.3-4-0.9c-0.9-0.6-1.5-1.4-1.7-2.5l-3.7,0.4
		C681.5,177.1,682.5,178.4,684,179.3L684,179.3z M705,179.3c1.5,0.9,3.6,1.3,6.5,1.3c1.7,0,3.3-0.2,4.6-0.7c1.4-0.4,2.4-1.1,3.1-1.9
		c0.7-0.8,1.1-1.7,1.1-2.6c0-0.9-0.3-1.7-0.9-2.3c-0.6-0.6-1.4-1.1-2.4-1.4c-1-0.3-2.9-0.8-5.5-1.3c-1.8-0.4-2.9-0.6-3.3-0.7
		c-0.6-0.2-1.1-0.4-1.4-0.7c-0.3-0.3-0.5-0.6-0.5-1c0-0.6,0.4-1,1.1-1.4c0.7-0.4,1.9-0.6,3.6-0.6c1.4,0,2.6,0.2,3.3,0.7
		c0.8,0.5,1.3,1.1,1.4,1.9l3.6-0.4c-0.2-1-0.7-1.9-1.3-2.5c-0.6-0.6-1.6-1.1-2.9-1.5c-1.3-0.4-2.8-0.5-4.5-0.5
		c-1.1,0-2.2,0.1-3.2,0.3c-1,0.2-1.8,0.5-2.4,0.8c-0.8,0.4-1.4,0.9-1.8,1.5c-0.4,0.6-0.7,1.3-0.7,2c0,0.8,0.3,1.5,0.8,2.2
		c0.5,0.7,1.3,1.2,2.4,1.5c1.1,0.4,2.9,0.8,5.6,1.3c2,0.4,3.3,0.7,3.8,0.9c0.7,0.4,1.1,0.8,1.1,1.5c0,0.7-0.4,1.3-1.2,1.8
		c-0.8,0.5-2.1,0.8-3.8,0.8c-1.7,0-3-0.3-3.9-0.9c-0.9-0.6-1.5-1.4-1.7-2.5l-3.7,0.4C702.5,177.1,703.5,178.4,705,179.3L705,179.3z"
		/>
	<path fill="#A5CD41" d="M390.8,76.9c0,0,11,1.8,15.8-1.6c13.5-9.6,15.6-24.1,15.6-24.1s-5.8,3.1-12.6,3.8
		c-6.8,0.7-14.2,2.9-17.3,5.1c-8.8,6.1-3,14.8-3,14.8s0.3-6.8,6.3-10.5c4.4-2.7,8.1-3.6,10.7-4c5.7-0.9,7.9-1.9,7.9-1.9
		s-0.5,1.4-7,3c-4,1-10.1,4.3-12.6,7.4C392,72,390.8,76.9,390.8,76.9L390.8,76.9z"/>
	<path fill="#A5CD41" d="M82.4,0L0,152.8h25.7l0.9-1.8c0,0,20.7-20.1,49.6-28.4c15.5-4.5,30.6-7.2,41.1-8.7h4.9l21.2,38.9H171
		L82.4,0L82.4,0z M82.7,37.8c3.1,7.1,29.7,58,29.7,58s-11.3,1.1-35.8,7.3c-20.1,5.1-35.8,10-35.8,10S80.2,46.1,82.7,37.8L82.7,37.8z
		"/>
	<path fill="#A5CD41" d="M632.8,152.6v-69h16.5v9.8c8.1-7.5,19.8-11.3,35.2-11.3c6.7,0,12.8,0.7,18.4,2.2c5.6,1.5,9.8,3.5,12.5,5.9
		c2.8,2.4,4.7,5.3,5.8,8.6c0.7,2.2,1,5.9,1,11.3v42.4h-19.3v-41.9c0-4.8-0.7-8.3-2.1-10.7c-1.4-2.4-4-4.2-7.6-5.6
		c-3.7-1.4-7.9-2.1-12.9-2.1c-7.9,0-14.6,1.6-20.4,4.7c-5.7,3.2-8.6,9.2-8.6,18v37.6H632.8L632.8,152.6z"/>
</g>
<g>
</g>
<g>
</g>
<g>
</g>
<g>
</g>
<g>
</g>
<g>
</g>
<g>
</g>
<g>
</g>
<g>
</g>
<g>
</g>
<g>
</g>
<g>
</g>
<g>
</g>
<g>
</g>
<g>
</g>
</svg>
